<svg id="Capa_1" data-name="Capa 1" xmlns="http://www.w3.org/2000/svg" viewBox="0 0 3276.34 2816.15"><defs><style>.cls-1{fill:none;}.cls-2{fill:#592780;}.cls-3{fill:#fcfcfc;}</style></defs><title>flor_lis_vectorial_cuadro</title><line class="cls-1" x1="3272.34" y1="1853.08" x2="3276.34" y2="1853.08"/><rect class="cls-2" width="3204.63" height="2816.15"/><path class="cls-3" d="M1077.88,1124.85c1.49.19,1.6,1.6,2,2.54,3.8,8.91,11.9,13.33,19.78,16.93,13,5.94,26.53,10.7,38.36,18.94,1.5,1,2.76,2.58,4.71,1.76,2.39-1,1.75-3.34,1.74-5.26-.14-19.63.08-39.27-.66-58.88-.47-12.32-6.4-21.84-17.55-28.16-12.95-7.34-26.83-13-39-21.74-2.58-1.85-4.34-.58-4.95,2.35-1.77,8.55-1.86,17.38-2,25.94-.21,10.21-1.81,20.37-1.3,30.61.09,1.9,1,4.32-1.1,6m594,1217c4.43-3.54,7-8.65,10.53-12.87,4.31-5.08,4.19-8.15,0-13.16-7-8.32-15.54-14.95-22.91-22.81-4-4.23-7.39-8.94-12-12.59-3.14-2.49-5.84-3.69-9.47-.53-2.86,2.49-6.43,4.16-9.63,6.28-4.1,2.7-4.93,6.71-1.5,10,6.49,6.16,12.4,12.82,18.43,19.4,8.25,9,17,17.56,25.53,26.31m1311-1193c-1.52-.58-.84-2-1.07-3-1-4.87-2.14-9.84-5.59-13.58-5.87-6.36-12.56-11.3-21.26-13.79-10.7-3.06-21.88-5.31-30.9-12.65a3.41,3.41,0,0,0-3.79-.23c-1.29.67-1,2-.94,3.12,1.21,19.86.51,39.71-.42,59.55a27.54,27.54,0,0,0,4.74,17.46c6.38,9.07,16.13,14,26.1,17.59,8.34,3,15.61,7.45,23.1,11.75,1.36.78,1.66,3.28,4.35,1.93s2.44-3.39,2.54-5.43c.45-8.78.37-17.62,1.26-26.35.63-6.12-.58-12.46,1.86-18.39m-957-990q0,.4,0,.8a39.28,39.28,0,0,0-19.08,16.62c-4.32,7.23-5.88,15.42-8.62,23.2-2,5.75-2.82,12-6,17.25-1.18,2-3.29,3.66-2.41,6s3.71,1.68,5.73,2a40.91,40.91,0,0,0,5.48.16c15,.28,29.94.09,44.86,1,18.52,1.1,30.48-8,38.83-23.24,6.51-11.92,12.2-24.3,21-34.87,3.07-3.7,2.24-5.59-2.49-6-10.08-.86-20.18-1.46-30.27-2.17q0-.39,0-.78M1963.58,1270.45c13.17,0,26.33-.07,39.5.05,3.05,0,4.45-.59,4.48-4.09.15-16.14.55-32.27.93-48.4.34-14,.44-27.94.88-41.91,1-31.59,1.42-63.2,2.11-94.8.32-14.47.45-28.94.89-43.41,1-32.59,1.36-65.2,2.14-97.8.31-13,.42-25.94.84-38.91,1-31.59,1.45-63.2,2.12-94.8.3-14.47.47-28.94.9-43.41,1-33.59,1.44-67.2,2.1-100.8q.51-25.7,1-51.4c.09-4.16.09-8.33.44-12.47s3.13-6.41,7-6.24c3.56.16,7.24,2.15,7.1,6a125.66,125.66,0,0,0,.84,16.77c1.49,15-.86,30.13.93,45.23s-.68,30.13,1,45.22c1.68,14.84-.72,29.8,1,44.72,1.75,15.33-.81,30.8,1,46.22,1.75,14.83-.74,29.8,1,44.72s-.69,30.13,1,45.22-.83,30.47,1,45.72c1.8,15-.85,30.12,1,45.22s-.71,30.13,1,45.22c1.71,14.83-.71,29.8,1,44.72,1.74,15.33-.81,30.8,1,46.22,1.76,14.83-.78,29.79,1,44.72s-.08,30.11.9,45.22c1.36,21,1.2,42.11,1.48,63.18,0,3.28.89,4.16,4.16,4.14q39.25-.2,78.5,0c3.29,0,4.6-.84,5.06-4.32,1.82-13.65,3.51-27.34,6.17-40.83a896.2,896.2,0,0,1,26.47-101.48q14.93-46.29,32.84-91.5c9.26-23.37,18.81-46.62,28.39-69.87,7.56-18.35,15.56-36.52,23-54.93,4.9-12.16,7.33-25.08,10.42-37.79a489.63,489.63,0,0,0,13.22-91,333.13,333.13,0,0,0-5.63-80.35,279.85,279.85,0,0,0-33.59-89.28c-19.5-33.2-44.87-61.57-73.18-87.44-22.3-20.38-46-39.18-68.82-58.93-23-19.89-46.11-39.68-61.32-66.83-4-7.2-11.75-6.6-15.72.94-7.38,14-17.73,25.7-28.73,36.76-23.07,23.19-48.75,43.46-73.93,64.24-9.57,7.9-19.25,15.77-28,24.37-18.58,18.17-37.33,36.24-52.72,57.46-11.44,15.77-22.13,32-30.34,49.58-17.23,36.82-27.05,75.62-28.12,116.45-.41,15.74-.64,31.47.73,47.18.72,8.28.66,16.68,2.13,24.82,2.94,16.24,5.23,32.62,9.23,48.66,3.32,13.34,5.67,27,10.74,39.79,10.14,25.55,21.29,50.71,31.83,76.11,22.12,53.3,43,107.06,59.45,162.44a810.86,810.86,0,0,1,21,86.49c2.05,11.32,3.93,22.67,4.88,34.15.26,3.14,1.21,5.23,5.37,5.13C1937.57,1270.25,1950.58,1270.45,1963.58,1270.45ZM2741,1075.91a231.16,231.16,0,0,0-7-56.24c-8.4-33.43-24-63.34-44.87-90.61-19.2-25.07-42.34-45.78-69.92-61.15-38.26-21.33-79.41-30.11-123.16-27.1-39.21,2.7-75.49,14.79-109.21,34.41a272.12,272.12,0,0,0-54.58,42,369,369,0,0,0-33.67,37.88,533.27,533.27,0,0,0-36.61,54.56,681.24,681.24,0,0,0-34.06,65.8,735.9,735.9,0,0,0-33.39,88.85c-4.09,13.6-7.82,27.29-11.36,41.05-4.82,18.76-7.57,37.94-11.94,56.78-1,4.45.52,8.72,3.84,9.22,11.31,1.71,22.77,2.26,34.14,3.13,8.77.67,17.59,1.31,26.32,2.24a305.05,305.05,0,0,1,33.86,5.63c7.16,1.59,9.67-.27,11.49-7.28,5.34-20.59,12.2-40.58,23.1-59,14.47-24.49,32.52-45.54,57.27-60.25,33.52-19.92,68-21.88,103.31-5.29,11.48,5.4,21.31,13.27,31.23,21.2s17.19,17.07,21.88,28.39c3.41,8.23,4.62,17,5.73,26,1.86,15.13-.35,29.77-1.91,44.57-.63,5.93-.91,11.89-2.41,17.74a3.91,3.91,0,0,0,2.76,4.23c3.46.86,6.79,3.11,10.49,2.14,6.59-1.72,13.27-.19,20-1.2,28.23-4.26,55.6-10.71,80.38-25.83,26.07-15.91,48.9-35.3,66.61-60.31C2727.14,1168.07,2740.34,1124,2741,1075.91ZM1547.08,840.21c-5.49.1-11,.23-16.45.59-32.34,2.11-62.56,11.35-90.87,26.92-16.37,9-31,20.48-44.9,32.86-9.6,8.56-17.76,18.59-25.48,28.77a265,265,0,0,0-29.56,49.09c-13.35,28.94-20.82,59.19-21.57,91.09-.31,13.34-.12,26.69,2.09,39.82,4.87,28.92,13.85,56.44,28.86,81.89a232.21,232.21,0,0,0,30.38,40.52c9.14,9.79,19.78,18,30.77,25.69,14.34,10.06,29.38,18.8,45.91,24.71,15.86,5.67,32.31,9,49,11.14,9.33,1.22,18.75,2.39,28.19.42,5-1,6.28-2.91,5.68-8-2.5-21.25-6.14-42.45-3.28-64,1.72-13,5.29-25.35,13.45-35.86,11.38-14.67,25.94-25.66,42.29-34,19.24-9.86,39.52-14.26,61.51-11.54a109.94,109.94,0,0,1,43.63,14.88,144.24,144.24,0,0,1,38.66,33.26c9.07,11.27,17.38,22.88,24.1,35.68,8.45,16.08,14.07,33.16,18.68,50.66,2.18,8.28,4.34,9.17,12.64,7.33a269.6,269.6,0,0,1,34.34-5.68c19-1.7,38-3.4,57-4.94,4.63-.37,6.11-2.71,5.45-6.92-1.05-6.72-2-13.45-3.29-20.12a734.75,734.75,0,0,0-19.47-79.1,757.19,757.19,0,0,0-36.71-96.44q-13.79-29.75-30.41-58c-16.7-28.32-35.39-55.22-57.47-79.58-27.28-30.09-59.15-54.07-96.6-70.36C1612.81,847.57,1580.71,840.39,1547.08,840.21Zm513.16,574.73a19.8,19.8,0,0,1-3.47,0c-4.28-.77-5.34.71-5.71,5.19-.56,6.73-.16,13.54-1.16,20.17-1.2,8-1,16-1.65,24-1,11.08-1.52,22.26-2.11,33.39-.62,11.81-1.41,23.62-2,35.42-.57,11.32-1.48,22.61-2,33.91-.53,11.66-1.78,23.3-2,34.9-.21,13.83-2.15,27.54-1.94,41.36.09,6.11-2.65,11-7.2,15.11-1.76,1.58-2.57,1.13-3.9-.35a20.58,20.58,0,0,1-5.62-12.47q-1.91-27.31-3.62-54.64-3.08-50.21-6-100.43-2.11-36.05-4-72.12c-.13-2.46-.68-3.72-3.41-3.53-4.15.29-8.31.26-12.46.51a499.28,499.28,0,0,1-65.3-.07c-6.49-.45-6.39-.68-7.48,6-.47,2.9-1.61,5.7-2,8.6-3.66,25.08-10.05,49.51-17.79,73.59a387.68,387.68,0,0,1-17.42,43.81c-9.74,21.1-20.51,41.74-33.9,60.61-7.22,10.18-7.44,17.78-.84,27.6a365.65,365.65,0,0,0,26.62,35.54c8.38,9.71,16.74,19.44,25.62,28.66,14.43,15,29.73,29,45.54,42.58,6.87,5.89,13.6,12.07,20.76,17.51,15.2,11.54,30.36,23.24,48.15,30.91,9.27,4,18.11,5.12,27.8,1.28a136.92,136.92,0,0,0,24.1-12.72c26.66-17.32,50.5-38.15,73.51-59.94a583,583,0,0,0,48.91-51.87c10.55-12.77,21-25.68,28-40.9,1.4-3,2.76-5.95.45-9.34-6.35-9.3-12.07-19-17.87-28.65a431.61,431.61,0,0,1-35-73c-11.25-30.56-18.39-62.18-24-94.2-1.15-6.59-1.1-6.62-7.86-6.12C2108.09,1417,2084.16,1416.32,2060.23,1414.93Zm-31.74-117.69c-40.28.55-90.41-.7-140.54.53-20.27.5-40.49,1.29-60.68,3.36-23.47,2.41-46.73,5.78-69,14.05-7.8,2.9-15.9,6.24-21.4,12.52-10.42,11.92-9.31,24.23,4.33,34.12,9.79,7.1,21.08,10.64,32.57,13.63a393,393,0,0,0,67.8,11.2c14,1.12,28,2.67,42.14,2.84,13.81.17,27.61.89,41.41.92,53.32.11,106.64.23,160,0,25.08-.13,50.15.91,75.24-.49,15.58-.87,31.16-1.64,46.69-3.15,26.77-2.6,53.42-5.93,79.45-13,11.21-3.06,22.17-6.72,32.12-13,10.16-6.39,14-15.7,10-25.69-3.31-8.14-10.16-13-17.61-16.86-15.17-7.92-31.72-11.45-48.39-14.19-31.87-5.25-64.07-6.62-96.31-6.72C2123.66,1297.15,2081,1297.25,2028.49,1297.25Zm289.86,314.27c5.61.81,12.54-1,19.45-2.86,22.84-6.29,43.71-16.4,61-32.79,20-18.89,31-42.6,35.88-69.38.81-4.45-.92-5.89-5.32-4.59-8.51,2.5-16.22,7.11-25,9-25.84,5.69-51,5.17-75.14-7.08-22.28-11.33-37.77-29.29-49.2-51.06-7.9-15.06-12.19-31.41-16.26-47.8-.72-2.9-1.51-3.9-5-3.05-29.92,7.23-60.36,10.73-91.08,11.8-3.85.14-4.14,1.91-3.49,4.45,1.43,5.58,3.09,11.12,4.86,16.6,11.55,35.9,25.27,70.82,46,102.63a287.47,287.47,0,0,0,28,37,134.35,134.35,0,0,0,19.8,17.7C2279,1603.87,2296.18,1612.15,2318.35,1611.51Zm-575.61,0a63.47,63.47,0,0,0,15.09-1.41c19.72-3.91,35.68-14.61,49.93-28.13,23.88-22.65,41.3-49.94,55.59-79.3a438.61,438.61,0,0,0,31-84.07c1.12-4.4-.16-4.7-4-4.86-10.93-.46-21.86-1.26-32.76-2.23a440.53,440.53,0,0,1-58.85-9.75c-2.15-.49-2.56-.24-3.09,1.85q-3,11.79-6.46,23.45a141.37,141.37,0,0,1-31.72,56c-5,5.39-11,9.56-16.94,13.81-17.54,12.49-37.16,17.67-58.43,17.47a117,117,0,0,1-50.41-11.77c-2.05-1-4.64-2.41-6.54-1-2.18,1.63-1.33,4.78-.77,7,3.39,13.5,7.35,26.78,14.12,39.1,7.68,14,17.37,26.21,30,35.86a131.92,131.92,0,0,0,29.62,16.94C1711.93,1606.21,1725.68,1611.91,1742.74,1611.51Zm333.85,404.57c.15,3.35,1.1,4.83,4.51,3,1.3-.7,2.84-1,4.13-1.65,20.56-11.09,40.94-22.52,61.68-33.24,16.89-8.73,30.86-20.2,40.65-36.76a96.93,96.93,0,0,1,34.52-34.24,76.84,76.84,0,0,1,24-9.18c1.4-.29,3.46-.33,3.46-2.13s-2.1-1.71-3.45-2.17a89.28,89.28,0,0,0-24.67-5c-18.56-.94-36.08,2.91-53.19,9.37-8.22,3.11-16.36,6.49-24.34,10.17-9.64,4.44-19.5,8.36-28.32,14.59-12.27,8.66-18,21.6-23.94,34.4-5.26,11.32-6.88,23.8-10.38,35.69C2079.6,2004.56,2078.15,2010.33,2076.59,2016.08ZM1801.7,2157.71a80.59,80.59,0,0,0,9.4-.75,169.7,169.7,0,0,0,34.5-10.75c6.13-2.62,6.4-3.56,1-7.52-7.45-5.49-13-12.67-17.59-20.41-4.87-8.26-7.85-17.56-9.65-27-3.13-16.34-12.77-27.82-26.46-36.06a74.21,74.21,0,0,1-25.75-25.5c-.82-1.35-1.3-3.26-3.54-2.85s-3.31,2-3.91,3.93c-5.82,18.88-8.35,38.26-5.57,57.8A178.25,178.25,0,0,0,1766,2131c2.24,5.46,4.4,11.23,7.93,15.84C1780.79,2155.78,1790.69,2158.53,1801.7,2157.71Zm-441.47-431.84c-3.05.57-6.19.29-9.32,1.07-15.36,3.83-29.65,11.87-46.1,11.54-2.47,0-4.68,1.46-2.55,5.12,1.4,2.41,3.51,3.88,5.15,5.9,6.13,7.6,11.63,15.87,18.63,22.57,10,9.54,18.47,20.42,28.46,29.93,5.68,5.41,12.78,8.81,19.62,11.2,12.34,4.32,24.56.47,36-5.29,8.52-4.28,16.07-10.42,25.59-12.82,3.91-1,4.29-3.36,1.35-6-9.9-9-20.54-17.15-29.78-27-8.43-8.94-17.5-17.26-25.81-26.35C1375.93,1729.67,1369.27,1725,1360.23,1725.87ZM1309.46,607.09c.59-2.14.08-4.27-.07-6.42-.62-8.95-5-16.26-9.74-23.51-6.08-9.24-12.11-18.54-16-29-.72-1.93-2.2-5.17-4.84-2.12a202.87,202.87,0,0,0-14.71,18.72c-11.66,17.22-22.93,34.7-34.39,52.05-2.39,3.62-3.28,8.41-2.43,11.69,2.5,9.67,4.76,19.5,11,28,6.79,9.32,14,18.56,17.38,30,.47,1.62.49,4,2.84,4.25s3.38-1.66,4.43-3.41c4.59-7.66,9-15.45,13.91-22.9q13.13-19.86,26.86-39.33C1307.56,619.58,1309.77,613.82,1309.46,607.09Zm659.09,1448.38,0,.32c4.38-.55,8.78-1,13.14-1.67,19.09-3,37.3-9,55.42-15.52,13.56-4.88,22.47-13.75,27.46-27.19,6.7-18,9.65-37.13,16.36-55.14,1.42-3.81-.84-5-3.69-3.62-5.24,2.52-10.82,4.25-15.84,7.36-5.94,3.69-12.21,6.87-18.49,10-15.91,7.81-33.55,12-47.93,23.07-7.19,5.53-14.19,11-19.36,18.77-9.06,13.61-17.36,27.83-29.21,39.38-1.18,1.15-1.9,2.44-1.35,4,.72,2.07,2.63,1.68,4.24,1.58C1955.75,2056.37,1962.15,2055.9,1968.54,2055.46Zm-58.63-1a40.16,40.16,0,0,0,28.65-11.24c14.08-13.46,22.39-31.32,35.2-45.75,2.18-2.45,1.3-4.3-2-4.65-2.8-.29-5.61-.56-8.42-.6-20.75-.29-41.51-.79-62-4.18s-37.11,4-50,18.89c-7.19,8.32-11.86,18.86-15.51,29.49-1.15,3.34.89,7.63,3.79,8.08,11.16,1.72,22.38,3.09,33.51,5,7.73,1.33,15.55,1.73,23.26,3C1900.86,2053.23,1905.32,2054.29,1909.91,2054.51ZM2340.48,224.25c-10,1-19.06,6.26-26.4,13.89-9.4,9.79-17.58,20.75-28.28,29.29-1.59,1.27-4.34,1.76-3.77,4.63.53,2.65,3.18,2.67,5.08,3.36,21.8,7.93,43.57,15.92,65.48,23.53,7,2.44,14.5,1.65,21.39-.55,12.62-4,22.33-12.64,31.65-21.73,5.09-5,9.9-10.32,16.15-14,1.55-.91,3.59-1.44,3.57-3.69s-2.2-2.64-3.73-3.53c-17.46-10-36.42-16.74-55-24.34C2358.56,227.83,2350.37,224.4,2340.48,224.25ZM1942.32,2079.56c-3.7.87-10.25-1-15.64,2.52a49.74,49.74,0,0,0-17.07,19.71c-5.09,10.15-7.42,21.17-10.83,31.85-1.56,4.87-.39,6.91,4.75,6.74,15.27-.49,30.47,1.23,45.72,1.09a25.09,25.09,0,0,1,7,.42,46.31,46.31,0,0,0,15,1.26c12.19-.66,22.84-5.91,31.61-14.65,7.11-7.09,14.33-14.06,21.44-21.15,4-4,8.87-6.9,13.37-10.28,2.86-2.15,3.32-3.88-1-5.19-10.54-3.18-21.34-4.9-32.19-6.43C1984.55,2082.65,1964.73,2079.27,1942.32,2079.56Zm119,24.34c-2.51.32-6-.59-9.43.68-9,3.32-15.84,9.32-23.07,15.52-8.19,7-13.24,17.29-23.46,22.11-1.36.64-3.6,2.4-2.92,4.76.6,2.11,3,2,4.6,2.38,23.57,6,46.52,13.58,67.72,25.76a9.84,9.84,0,0,0,6.67,1.27,119.14,119.14,0,0,0,15.46-3.73c18.26-5.58,33.08-17.2,48.78-27.32,3.5-2.26,2.75-4-.13-5.87-1.11-.73-2.18-1.54-3.34-2.18-15.37-8.56-30.6-17.4-46.62-24.73C2085,2107.71,2074.31,2103.17,2061.33,2103.9Zm-275.73-1902a14.84,14.84,0,0,0-4.79.58c-20.23,6.4-40.37,13.15-60.78,18.94-18.31,5.19-26.11,18.3-28.6,35.56-1.72,12-2.43,24.11-3.46,36.19-1,11.3-.38,11.77,10.35,7.12q26.94-11.68,54.9-20.6c18.08-5.81,27.24-19.56,30-37.42,1.83-11.77,2.17-23.76,6.1-35.18C1790.62,203.44,1789.76,201.15,1785.61,201.94ZM2691.87,453c-7.45-.72-14,1.88-20.27,4.88-11.59,5.53-23.46,10.07-36.34,11.35-3.69.37-3.74,2.44-2.21,4.72,1.72,2.55,3.12,5.52,5.87,7.19,4,2.45,7,6,10.35,9.21,13.1,12.3,25,25.8,38,38.2,8.73,8.32,18.42,9.83,29.34,6.65,15.19-4.42,29.7-11.32,45.84-12.32,3.79-.23,3.74-2.06,1.91-5A72.08,72.08,0,0,0,2753,504.07c-10.81-10.54-20.27-22.27-30.33-33.48C2714.31,461.26,2706.14,451.58,2691.87,453ZM1790.68,2169.91c2.27,8.43,8.25,13.91,14.67,18.46a161.08,161.08,0,0,0,37.58,19.84c8.3,3.06,17,4.46,25.73,5.71,9.12,1.31,18.19.74,27.25.62,3.26,0,7.18-.55,10.12-3.33,9.51-9,16.07-19.64,18.75-32.51,1.34-6.41,1.05-13.25,5.68-18.7a8.33,8.33,0,0,0,1.24-3.74c.54-2.84.16-4.59-3.63-4.48-6.64.19-13.3-.5-19.94-.38-15.7.28-31.49-2.23-47,2.67-11.16,3.52-22.27,7.18-33.38,10.86C1815.84,2168.88,1803.3,2169.37,1790.68,2169.91ZM2790.34,622.8l1.41-.15c12.75-1.3,24.91-5.65,37.63-7.14,4.93-.58,5.9-2.71,3.09-6.87-11.92-17.69-23.62-35.55-36-52.9-12.67-17.75-26.15-21.21-44.57-17.25-12.31,2.65-24.26,7-36.35,10.69-4.63,1.4-5.58,4-2.1,7.47,3.65,3.59,6.23,8,9.62,11.67a219.53,219.53,0,0,1,23.85,30.77C2757.08,615.18,2771.72,622.37,2790.34,622.8ZM1770.79,2007.21c.14,6.52,3.24,12.2,6.27,17.8,4.35,8,10.87,13.94,18.91,18.28,5.18,2.79,10,6.26,15.4,8.66,1.28.56,1,3.7,3.71,2.84,2.36-.74,2.43-2.8,3-4.7,2.79-9.5,3.56-19.63,9-28.29,3.09-4.9,5.85-10,9.12-14.78,7.64-11.11,13-22.86,13.95-36.67.82-11.85,2.07-23.8,7.9-34.64,1.43-2.66,4.93-6.06,3-8.25s-6.29-.58-9.59-.29a5.43,5.43,0,0,0-1,.06c-18.26,5.21-35,13.47-48.15,27.3A188,188,0,0,0,1775.2,1992,34.53,34.53,0,0,0,1770.79,2007.21ZM1147.24,1464c-4.41-.28-5.43,1.33-4.27,4.67,7.87,22.52,17.67,44.22,27.74,65.8,2.75,5.89,6.18,11.71,12.46,14.63,11.41,5.31,23.78,4,35.62,3.31,9.6-.52,19-1,28.42.78,4.07.77,5.5-.56,4.15-4.42a97.38,97.38,0,0,0-4.55-10.45c-8.5-17.37-17.13-34.68-24.78-52.47-4-9.34-11.78-14.8-21.4-16.84C1182.74,1465.26,1164,1469.56,1147.24,1464Zm1249.89,750.08c1.51-.72,4.72.06,6.18-2.8s.13-5-1.55-7.28c-4.45-5.94-9.25-11.55-14.17-17.12-5.7-6.46-12.18-12.09-18-18.43-4.94-5.39-10.34-10.78-16.55-14.49-15-9-31.88-9.82-48.71-7.43-15.77,2.24-30.28,9.63-46,12.46-1.36.24-2.92,1-3,2.24s1.25,2.08,2.42,2.87c7.35,4.95,14.67,9.9,21.52,15.58,7.76,6.43,15.75,12.59,23.35,19.23a59.42,59.42,0,0,0,17.1,10.64c12.34,4.9,25.08,2.3,37.71,1.52,6.1-.38,12.21-.77,18.33.14C2382.65,2212.27,2389.54,2213.1,2397.13,2214.11ZM2234.76,193.89c-5.93-.79-10.55,1.77-15.2,5.07-6.23,4.42-10.88,10.14-15.12,16.31-6.09,8.88-11.89,18-18.27,26.63-4.21,5.72-4.38,6.16,2.35,8.39a14.57,14.57,0,0,0,1.93.49c19.57,3.63,39,8,58.28,12.84,12.78,3.22,24.35-.54,33.49-10.23,11.23-11.9,20.25-25.93,34.26-35.13,2.37-1.56,1.68-3.09-.45-4a74,74,0,0,0-10.2-3.91c-13.11-3.56-26.22-7.2-39.46-10.23C2255.92,197.7,2245.58,194.43,2234.76,193.89Zm539.89,1513.63c.57-12.11-5.76-21.91-10.88-32.06-5-9.87-11.31-19.11-12.42-30.57-.28-2.84-3.5-4-4.94-1.78-4.3,6.55-9.47,12.42-14.06,18.72-6.93,9.51-13.95,18.95-21.6,27.88-7,8.23-12.06,17.44-11.71,28.41.25,7.7,2.68,15.28,5.6,22.39,4.9,12,9.53,23.92,12.22,36.6,1.2,5.65,2.22,5.89,6.32,1.44,16.63-18,32.18-37,47.29-56.31C2774,1717.8,2775.68,1713.09,2774.65,1707.52Zm-541.09,379.84c-6.62-.7-12.54.64-18.3,2.86-9.6,3.7-19.34,7.41-27.32,14-6.5,5.35-12.07,11.83-18,17.9-2.37,2.45-4.8,4.87-6.23,8.1-1.21,2.74-.83,4,2.48,3.74,18.63-1.39,36.39,3.13,53.56,9.39,15.25,5.56,30.45,6.91,45.83,2.45,18.26-5.3,36.24-11.59,55.53-12,.79,0,1.81.16,2.19-.77.51-1.24-.67-1.68-1.37-2.3a113.51,113.51,0,0,0-18.1-13c-13.44-7.77-26.51-16.39-41.05-22C2253.25,2092.11,2244.31,2085.69,2233.56,2087.36ZM2534.77,319.25c-8.62-1.16-15.91,3.24-22.76,7.5-11.62,7.23-21.5,17.09-34.48,22.36-3.59,1.46-3.13,5.4.49,7.7,15.81,10.07,31.84,19.8,47.3,30.44,5.17,3.56,11.26,7.18,17.65,6.86,8.22-.42,16.26-3,23.88-6.47,12.95-5.89,24.71-14.28,38.67-18,3.68-1,3.95-3.54,1-6.21a154.62,154.62,0,0,0-14-11.1c-12.57-8.88-24.44-18.75-37.75-26.55C2548.65,322.17,2542.88,317.32,2534.77,319.25Zm-630,1602c-3.66,0-7.32,0-11,0-12.58-.17-20.73,7.13-26.24,17.11-6.86,12.41-6.77,26.51-7.24,40.27-.18,5.25,1.07,6,5.75,3.79,6.32-3,12.74-4.56,19.73-3.58a12.82,12.82,0,0,0,4.49,0c10.18-2.29,20.23.29,30.23,1.19,13.12,1.19,25-.61,35.54-8.87,4.05-3.16,7.56-6.88,11.38-10.27a79.23,79.23,0,0,1,21.66-13.93c1.17-.5,2.68-.82,2.7-2.54,0-1.93-1.86-1.65-2.89-2.19-2.79-1.45-5.7-2.67-8.61-3.86C1956.09,1928.48,1931.36,1920.74,1904.81,1921.25ZM1207.55,797.55a41.76,41.76,0,0,0-13-29.21c-8.61-8.32-16.73-16.92-23.29-27-1.1-1.69-2.23-4.34-4.72-3.85-2.2.43-2.86,3-3.67,4.93q-13.38,32.9-26.73,65.8c-1.62,4-3.29,8.5-1.71,12.35a59.36,59.36,0,0,0,19.41,25.33c9,6.68,17.5,13.62,24.52,22.37,2.89,3.6,4.77,3.08,6.46-1.51q11.49-31.2,21.74-62.84A16,16,0,0,0,1207.55,797.55Zm93.52,927.9c22.8.51,38-9.93,55.13-13.68,1.79-.39,2-1.8,1.27-3.1a31,31,0,0,0-3.33-4.92c-12.08-14.72-24-29.51-34.79-45.26-6.35-9.31-16-12-26.56-10.72-15.94,2-31.64,5.89-47.9,5.11-2.6-.12-6.15-2.47-7.71.22s1.51,5.54,3,8c10.84,18,23.61,34.52,36.56,51C1284.45,1721.94,1294.51,1724.5,1301.07,1725.45Zm1556.2-271.7c-.57,13.83,8.69,27.36,18.69,37.45a144.68,144.68,0,0,1,17,20.83c1.46,2.16,1.59,6,5.15,5.79s2.95-3.86,4.11-6.06a406.37,406.37,0,0,0,24.83-58.88c4.07-12-.08-21.16-6.79-29.89-9.85-12.83-22.51-22.86-34.89-33.11-5-4.15-5.65-3.87-7.84,2.3-4,11.4-8.25,22.75-12.29,34.15C2862.07,1435.31,2856.76,1443.69,2857.28,1453.75Zm-401.9-1111.8c13.33-.43,22-6.07,30.56-11.75,10.45-6.91,19.36-16.12,31.29-20.84,1.35-.54,3.55-1.18,3.11-3.32s-2.28-3.09-4-4.16c-14.17-8.93-29.54-15.65-44.09-23.87-7.51-4.24-15.17-8.32-24-8.76-12.42-.6-22.17,5.78-30.29,13.86-9.3,9.25-19.85,16.5-30.82,23.31-3.53,2.19-3.67,3.54,0,5.28,18.18,8.63,36.22,17.58,54.64,25.65C2446.69,339.52,2452,342.26,2455.38,341.95ZM2140,173.51a27.13,27.13,0,0,0-17.65,6c-7.45,6.16-12.85,14.14-17.87,22.41-6,9.86-10.88,20.4-18.47,29.28-3.19,3.73-1.78,6.27,3.39,6.61s10.64.25,15.93.68c12.9,1.05,25.8,2.09,38.59,4.17,13.69,2.23,28.48-1.94,35.71-14.62,7.82-13.72,16.83-26.62,28.07-37.83,1.73-1.73,2-3.81.35-5.11s-3.94-1.76-6-2.12c-9.32-1.62-18.55-3.68-28-4.8C2162.69,176.84,2151.37,175.09,2140,173.51Zm487.46,283.32c8.66-1.56,17.86-1.94,26.06-6.55a97.75,97.75,0,0,1,25-9.61c2.8-.68,7.13-.21,7.81-3.32s-2.86-5.54-5.24-7.74c-13-12.06-26-24.17-39.21-36.08-3.89-3.52-7.12-8.22-12.24-9.88a33,33,0,0,0-22,.08,221.1,221.1,0,0,0-23.88,9.91c-8.11,4.08-15.9,9-25.13,10.59-4,.69-4.6,3.74-1.27,6.33s6.88,5.4,10.37,8a350,350,0,0,1,29.63,25.06C2605.69,451.55,2615.9,455.46,2627.48,456.83Zm12.94,1397c2.4-1.52,4.84-2.66,6.79-4.36,16.07-14.09,31.77-28.59,48.23-42.24a20.46,20.46,0,0,0,6.46-8.62c5.08-13.78,1.14-27.18-3.46-39.69-3.8-10.34-9.06-20.1-10.43-31.26-.18-1.49.52-3.56-1.7-4.26s-3.21,1.28-4.5,2.45c-8.81,8-15.43,18-24.11,26.09-8.38,7.81-15.21,17.11-23.9,24.62a6.39,6.39,0,0,0-1.4,2c-5.2,10.57-5.3,21.47-2.26,32.65,2.25,8.27,5.4,16.26,7.13,24.73C2638.46,1841.79,2638.35,1847.84,2640.42,1853.84ZM2834,1627.22c0-15.63-5.49-26.32-12-36.26-5.15-7.87-10.56-15.51-14.29-24.18-.73-1.7-1.24-3.41-3.33-3.9-2.36-.56-3.19,1.19-4.11,2.74-9.65,16.33-20.51,31.88-31.72,47.15-3.56,4.85-6.08,10.06-6.47,15.7-.88,12.56,3.29,24,9.25,35,5.42,10,12.09,19.31,14.87,30.57.35,1.4,0,3.55,2.4,3.74,2.07.16,2.67-1.58,3.71-2.85,13.2-16.2,23.66-34.28,35.6-51.33C2832.11,1637.54,2834.11,1631.27,2834,1627.22ZM1111.27,1366.77c0,.3.21,2,.57,3.55,5,21.8,12.23,43,19.11,64.2,2.35,7.25,6.91,12.11,14.35,14.31a77.27,77.27,0,0,0,20.86,3.24c12.45.22,25-.49,37.35,1.91,3.21.62,3.56-.82,3.31-3.08a21.43,21.43,0,0,0-1.33-5.26q-10.23-26.56-20.55-53.08c-3.2-8.24-8.83-13.88-17-17.61a92.76,92.76,0,0,0-24.72-7.17c-9.11-1.42-18.38-2.19-26.92-6.32C1112.44,1359.57,1111.29,1360.7,1111.27,1366.77ZM2975.33,1240.2c.93-12.77-11.9-24.54-21.09-29.22-11.27-5.75-24-8.64-34-16.84-2.67-2.17-4.87-2.11-5.31,2.09-1.18,11.5-2.46,23-3.59,34.49-.88,8.94-1.21,18-2.52,26.84-.82,5.58-.66,10.72,1.63,15.85,3.09,6.91,8.81,11.82,14.42,16.11,11.68,8.93,25,15.74,33.7,28.28,1.19,1.73,2.66,1,3.71-.32,1.17-1.48,1.33-3.33,1.62-5.15,1.84-11.61,3.8-23.21,5.66-34.82C2971.49,1265.08,2973.39,1252.64,2975.33,1240.2Zm-4.85-235.14c-.43-6-.29-11.41-1.28-16.59-3.46-18.07-5.53-36.31-7.44-54.58-.7-6.69-4.36-12.2-9.24-16.35-8.35-7.1-18.49-10.7-29.22-12.65-7.81-1.42-15.79-2.07-23.29-4.84-1.83-.68-3.92-2.61-5.41-1.66-2,1.29-1.82,4.43-1.35,6.49,1.67,7.22,2.64,14.59,4.29,21.77a291.09,291.09,0,0,1,6.44,38.28c1.49,16.19,15,26.85,27.4,31.6,11.52,4.4,24.14,5.31,35.16,11.31C2970.69,1010.12,2970.41,1006.9,2970.48,1005.06ZM1615.35,1911.21c-12.12.13-22.28,5.31-31.81,12.69-9.81,7.59-19.66,15.31-32.13,18.42-1.4.35-3.31,1-3.33,3.11a4.48,4.48,0,0,0,2.42,4.11c6.94,3.23,13.26,7.58,20.1,10.92,12.44,6.07,25.2,11.49,37.71,17.41,10,4.71,19.91,7.05,30.1,1a82.92,82.92,0,0,0,20.07-16.89c6.19-7.14,12.13-14.46,19.87-20,1.47-1.06,3.51-1.85,3-4.07-.49-2-2.65-2.25-4.31-2.93-15-6.11-30.06-11.81-44.5-19.2C1627.42,1913.09,1621.84,1910.18,1615.35,1911.21Zm834.1-5.45c.3-3.37-1-3.68-3.86-2.69-5.71,2-10.73,5.34-16.19,7.79-14.06,6.31-29.08,10.54-42.1,19.07-5.19,3.4-11.21,5.5-14.37,11.93-4.91,10-5.27,20.49-5.8,31.23-.47,9.43.3,19.15-3.93,28.11-1,2.18.51,4.34,1.34,5.95.61,1.19,3.26-.27,4.9-.88,20.17-7.47,39.44-17,59.15-25.58,13.49-5.84,18.21-16.86,19.74-29.78C2450.11,1935.91,2447.43,1920.7,2449.45,1905.76ZM1433.89,448.14a47.37,47.37,0,0,0-1.41-12.63c-2.73-11.13-5.53-22.24-8.21-33.38-2-8.43-3.94-9.09-10.69-3.46-.38.32-.7.72-1.07,1-13.95,12.27-28.08,24.31-41.21,37.5-10.92,11-13.51,23.71-8.16,38s15.05,26.77,19.56,41.56c1.24,4.07,3.22,3.31,5.58.76q13-14.09,26.11-28.08c4.63-5,9.82-9.42,13.56-15.18C1433,466.52,1432.75,457.54,1433.89,448.14ZM2550.17,1892.81a71.14,71.14,0,0,1,1.16,14.19c-.07,2.55-1.09,6.17,1.43,7.27,2.19,1,4.79-1.59,7.08-2.93,12.59-7.33,24.53-15.66,36.61-23.77,7.68-5.16,15-10.82,22.43-16.37a14.05,14.05,0,0,0,4.3-5.41c3.41-7.34,3.63-15.16,2.5-22.81-2.16-14.68-9.5-28.25-9.46-43.49,0-3.4-3.08-4.21-5.95-2.12-6.43,4.67-12.29,10-18.35,15.13a389.91,389.91,0,0,1-31.07,23.64c-11.56,7.93-14.48,19.52-13.53,31.95A220.83,220.83,0,0,0,2550.17,1892.81ZM1082.52,1210.16c-1.17,4.11.53,7.2.9,10.43,1.2,10.49,6.6,18.22,15.78,23.84,8,4.88,17.22,4.8,25.54,8.06,8.72,3.41,19,3,26,10.61a3,3,0,0,0,3.26.59c1.54-.53,1.69-2.09,1.39-3.37-.78-3.29-.26-6.64-.67-9.92-2.19-17.6-5.75-35-7.45-52.7a13,13,0,0,0-2.45-6.42c-6.05-8.19-12.67-15.64-22.09-20.3-12.72-6.29-26.25-10.85-38.55-18.08-3.91-2.3-5.12-1.31-5.25,3.46-.2,7.14,0,14.32.27,21.41.22,5.51.12,11.24,1.16,16.62S1080.43,1205.56,1082.52,1210.16Zm1805.17,330.65c-1.53-3.51.09-7.22-1.37-10.48a113.77,113.77,0,0,0-14.85-25.12c-7.34-9.14-16-17.21-21.58-27.75-1.29-2.46-2.84-2-4.23-.23a16.75,16.75,0,0,0-2.52,4.18c-6,15-13.36,29.37-20.49,43.85-2.33,4.73-5,9.5-5.64,14.78-1.34,11.7,1.58,22.4,8.12,32.3,7.45,11.29,15.7,22.19,19.31,35.61.39,1.45.9,3.54,2.91,3.67,1.75.11,2.3-1.75,3.07-2.95,7-10.83,14.38-21.35,20.28-32.85,4.75-9.27,9.88-18.33,14.65-27.59C2886.53,1545.93,2886.95,1543.23,2887.69,1540.81ZM1446.74,1806.2c-4.77.8-9.68,1-14.13,3.57-12.4,7.07-25.15,13.24-39.49,15.48-7.62,1.19-8.11,2.87-3.21,9a14.56,14.56,0,0,0,1.39,1.43c6.21,5.88,12.05,12.24,18.8,17.43,3.18,2.45,6.14,5.22,9.24,7.73,7.52,6.1,15.91,11.12,22.61,18.27a14,14,0,0,0,10.3,4.21c9.7-.07,18.68-3.6,26.66-8.54,11.08-6.86,20.43-16.36,32.64-21.63,2.72-1.17,2.42-3.5.2-5.06-16-11.24-31.06-23.67-46.86-35.13C1459.63,1809.16,1454,1805.35,1446.74,1806.2ZM1086,1020.56c-1,4.19,1.4,9.79,6.49,14.17,5.78,5,12.53,8.55,19.33,11.83,10.24,4.94,20.65,9.45,29.07,17.46,1.09,1,3,2.1,5,1,1.8-1,1.54-2.71,1.68-4.36,1.63-18.82,3.15-37.66,5-56.46,1.29-13.17-3.58-24-13.41-31.95-11.93-9.65-24.92-18-34.76-30-2.08-2.55-4.1-1.66-5.33.9a23.61,23.61,0,0,0-1.68,5.67q-3.47,17.78-6.82,35.59A274,274,0,0,0,1086,1020.56Zm803.16-774.8,3.89-.63c11.81-1.87,23.56-4.27,35.44-5.44a269.59,269.59,0,0,0,28.6-3.88c10.16-2.11,17-8.18,21.12-17.71,6.24-14.44,8.47-30.43,17.18-43.92,1.41-2.18.88-4.43-2.62-4.72a43.11,43.11,0,0,0-8.43-.15c-19.64,2.21-39.26,4.55-58.92,6.55a23.72,23.72,0,0,0-16,8.12,51.63,51.63,0,0,0-9.68,16.67c-5,13.66-5.57,28.78-13.66,41.47C1884.85,244,1885.45,246.1,1889.12,245.76Zm265.16,1797.77c12.33,4.57,25.24,2.09,37.74,1.82,9.55-.2,19.33-2.19,28.92-3.9,6.93-1.23,14.34-.6,20.49-5,10-7.23,14.93-17.58,17.28-29.22,2-9.7,2.31-19.69,6.93-28.83,2.31-4.58,1-5.93-4.13-5.15-13.09,2-26.12,4.41-39.24,6.2-9.34,1.28-18.93.94-28,3.68-6,1.81-12.5,3.26-15.72,9.74s-6.6,12.94-8.49,20c-1.41,5.29-4,10.1-6.56,15C2160.69,2033.2,2155.7,2037.19,2154.28,2043.53ZM1173.89,1354c.74-2.69-1.52-5-2.05-7.72-2.32-11.87-4.78-23.72-7.21-35.57-1.77-8.62-3.93-17.15-9-24.48-7-10-17.17-15.26-28.79-18-10.81-2.51-21.54-5.19-31.64-10-4.06-1.93-6.41-.73-6,2.74,1,7.69,2,15.41,3.42,23,2.37,12.24,4.8,24.49,7.88,36.56,1.55,6.07,1.31,12.75,6.46,17.85,9.84,9.74,22.36,12.53,35.19,15.08,8.62,1.72,17.54,1.85,25.9,5C1172.41,1360.21,1173.88,1359,1173.89,1354Zm538.7,661.47c8-1.25,16-1.83,22.75-7.46,8.88-7.41,17.28-15.45,26.85-22,4.27-2.93,7-6.91,9.11-11.48,2.73-5.82,2.08-7.5-4.18-9.14-16.16-4.24-32.07-9.29-48.07-14.06-5-1.5-9.82-3.91-15.25-4.1-14.65-.5-24.71,7.25-33.28,18a92.5,92.5,0,0,1-22.9,20.44c-1.9,1.2-4.08,2.37-4.12,4.38s2.37,3.24,4.24,4.07a367.54,367.54,0,0,0,46.76,16.42C1700.51,2012.25,1706.56,2013.83,1712.59,2015.48Zm1190.75-725.33c-4,15.47-5.77,31.45-10.06,46.87-1.94,7-4.46,14-5.18,21.09-1,9.58,2.5,18.12,9.6,25,4.51,4.37,10.2,7.66,14.38,11.85,5.72,5.75,12,11.27,16.92,17.95,1.72,2.33,2.52,7.13,6.85,5.92,3.91-1.1,3.8-5.46,4.71-8.68,5.12-18.18,10.23-36.36,15.07-54.61,1.44-5.42,2.42-11.35.32-16.63-3.86-9.69-10.75-17.4-19-23.68-9.46-7.24-19.86-13.28-27.93-22.26A7.59,7.59,0,0,0,2903.34,1290.15ZM1791,262.21c-.2,3.68.56,4.79,3.71,4,19.37-4.57,38.76-9.1,58.21-13.33,8.6-1.87,14.66-7.08,19.15-14a52.16,52.16,0,0,0,7.41-17.29c2.77-12.84,6.1-25.5,12.35-37.19,1.5-2.8,1.45-4.27-2.55-3.79-22.62,2.73-45,7.09-67.21,11.8a25.45,25.45,0,0,0-16.27,11.46c-5.95,9.12-6.95,19.31-7.88,29.49-.8,8.82-1.86,17.42-5.81,25.45A19.41,19.41,0,0,0,1791,262.21Zm387,1884.92a62.81,62.81,0,0,0-30.09,10c-9.14,6-17.85,12.62-27.74,17.45-6.72,3.28-13.65,6-20.62,8.6-4.48,1.69-4.78,2.93-.77,5.64,3.05,2.06,6.74,3.17,10.07,4.84a210.85,210.85,0,0,0,64,19.88c4.8.7,9.78.43,14.36-2.46,17.5-11,29.6-27,40.46-44.06,1.77-2.78,1.39-5.78-2-7.51C2210.71,2151.93,2195.15,2146.71,2178,2147.13Zm356.86-282.61c0-1.5,0-3,0-4.49,0-4.87-.89-5.33-5.39-3.69-5.55,2-9.91,6-15,8.78-8.42,4.68-16.05,10.73-24.89,14.68-6.92,3.1-12.79,7.72-18.46,12.53-8.6,7.29-9.11,17.83-9.83,28-.92,13.15,1.48,26.46-2.11,39.52-.43,1.57-1,4.51.8,5.55,2.07,1.19,4.59-.18,6.58-1.24,20.07-10.6,40.14-21.21,60.08-32.06,5.45-3,9.85-7.05,11.17-13.79,1.76-8.93,1.4-17.83.42-26.74S2533.95,1873.79,2534.89,1864.52Zm-1239.62-1332c-1,6.58,1.81,12.58,4.89,18,7.77,13.72,17.55,26.28,23.43,41.09,1.43,3.61,3.18,1.84,4.62,0,11.21-14.46,23.19-28.31,33.43-43.54,6.95-10.32,7.34-20.82,3.1-32.13-5.16-13.75-13.49-26.22-16.49-40.85a19.9,19.9,0,0,0-1.51-5.23c-1.43-2.74-3.12-4-6.06-1.05-3.42,3.38-6.12,7.37-9.57,10.64-6.33,6-10,14.08-16.34,20-5.52,5.21-8.93,12-13.74,17.67C1297,521.87,1295.09,526.5,1295.27,532.54Zm969.89,1502c.82-.11,1.64-.19,2.45-.35,23.9-4.66,46.88-12.74,70.37-19,3.28-.87,6.31-3.33,8.71-6.26,5.48-6.71,7.29-14.6,8.17-22.91,1.38-13,.47-26.21,4.23-38.92.43-1.46,1.26-2.84-.11-4.12s-3.08-1.18-4.66-.49c-2.68,1.16-5.22,2.65-8,3.66-16.74,6.19-33.52,12.25-50.27,18.41-12.32,4.53-19.46,13.35-22.48,26.14-2.4,10.17-2.33,20.89-7,30.57-1.55,3.2-4.18,5.88-4.56,9.69C2261.77,2033.55,2262.33,2034.89,2265.16,2034.52ZM1174,899a43.94,43.94,0,0,0-8.18-21.6c-9.85-13.07-24.4-21.46-34.23-34.6-2.46-3.28-5-2.38-6.41,1.47s-3.06,7.74-4.11,11.73c-4.51,17.11-8.85,34.27-13.24,51.41a21.06,21.06,0,0,0,.38,12.24c4.55,13.41,14.13,22.57,25.65,29.95,6.22,4,12.47,7.9,17.14,13.68,1.75,2.17,3.43,4,6.22,3.51s2.88-3.47,3.26-5.64c2.06-11.79,5.21-23.32,8-34.93C1170.59,917.67,1173.46,909.29,1174,899ZM2829.41,719.27c-6.19-.09-7.4,1.49-5.82,6.14a29.06,29.06,0,0,0,1.59,3.08c7.94,16.52,16,33,23.74,49.59,1.89,4,4,8.13,7.61,10.29,8.78,5.26,18.11,9,28.84,8.68,10.29-.34,20.63,0,30.92.59,8.37.5,8.92.17,6.29-7.91-.2-.63-.46-1.24-.72-1.85q-11.67-27.65-23.36-55.29a12.78,12.78,0,0,0-4.11-4.83c-8.64-7-18.89-9-29.52-9.88C2852.6,716.92,2840.53,722,2829.41,719.27ZM1210.12,1566.93c-5.33,0-10.66-.07-16,0-6.89.11-7,.48-4.14,6.64,7.84,16.9,17.3,32.93,26.58,49,3.29,5.71,5,13.32,13.79,14.44,3,.38,6.13.76,9.08,1.19,3.73.54,7.71,1.76,11.52,1.08,13.82-2.47,27.62-4.94,41.69-5.62,2.22-.11,5.16.31,6.3-2,1.27-2.59-.4-5-1.94-7.25-8.72-12.86-17.71-25.57-25.85-38.8-6.44-10.47-16-15.21-27.29-17.75S1221.37,1567.34,1210.12,1566.93Zm322,366.65c13.58-.08,24.6-4.89,34.37-12.36,8.55-6.54,17-13.12,26.36-18.52,3.78-2.19,3.48-3.64-.09-5.71q-23-13.32-45.79-26.88c-14.94-8.9-28.86-7-42.57,3a191.66,191.66,0,0,1-34.27,20.34c-4.07,1.82-3,3.55-.4,5.25,15.94,10.37,31.18,21.81,47.8,31.15C1522.39,1932.57,1527.44,1934,1532.1,1933.57Zm-286.48-1228c-1.23-7.33-3-15.4-6.66-22.57-6.33-12.29-15.66-22.89-20.43-36.15-1.33-3.69-3.54-3.48-5.8-.23-13.26,19.1-23.19,40-33.56,60.72a18.16,18.16,0,0,0-2.15,10.46c1.74,12.13,8.91,21.32,17.2,29.69,7.27,7.34,15,14.17,19.87,23.59,2,4,4.67,3.72,6.58-.4,6.82-14.7,13.45-29.48,20.3-44.16C1244,720.08,1244.89,713.25,1245.62,705.57Zm433.86-461c.06-6.32-.89-6.83-6-4.78-19.07,7.63-37.54,16.61-56.18,25.2-14.5,6.68-18.79,15.13-17.58,30.89,1.12,14.54,4.71,28.82,4.32,43.52-.14,5,.61,5.4,5.13,3.09,13.16-6.71,26.36-13.36,39.37-20.35,4-2.17,8.48-3.84,11.83-7.23,8.45-8.56,13.73-18.51,14.21-30.79.25-6.3.69-12.61,1.52-18.85C1677,257.92,1677.35,250.44,1679.47,244.58ZM2782.33,635.25c-1.83,0-3.66.07-5.49,0-2.89-.15-3.29,1.54-2,3.39,5.56,8.26,10.58,16.82,15.37,25.55,4.32,7.87,10.31,15,13.45,23.31,5.12,13.48,22.93,19.18,33.8,18.25,10-.85,19.93-2.73,30.1-2.11,4,.24,7.61,1.91,11.58,1.9,5.59,0,6.19-.66,3.57-5.52-6.42-11.93-12.18-24.18-19.31-35.81-4.82-7.87-9.15-16.37-13.46-24.72-1.83-3.55-4.29-6.94-8.2-7.81-5.58-1.24-11.23-2.13-17.16-1C2810.61,633.26,2796.87,638.14,2782.33,635.25Zm-1345.43-245c-.15,5.51.33,10,2,14.22a150.33,150.33,0,0,1,10.09,45c.24,3.69,2,4.72,5.1,2.35.93-.7,1.8-1.47,2.68-2.23,10.85-9.28,21.34-19,33-27.29,15.44-10.93,19.86-26.53,18.34-44.26-1.13-13.2-5.11-26-5.63-39.36-.15-4-2.58-4.47-5.44-2.91a121.72,121.72,0,0,0-12.68,7.82c-11.23,8.07-22.42,16.18-33.39,24.6C1443.38,373.92,1434.59,379.27,1436.9,390.21Zm152.6-59.77c.06-13.33-2.84-26.4-3.69-39.66-.47-7.28-2-8.11-8.54-4.84-.74.37-1.43.84-2.16,1.24-15.58,8.53-30.5,18.15-45.55,27.55-8,5-12.66,12.12-12.54,21.71.11,8.85-.51,17.55,2.9,26.41s3.3,18.89,2.95,28.59c-.16,4.41,1.41,5.29,5,2.91,16.22-10.9,32.28-22,48.58-32.82,6.26-4.14,9.39-10,11.55-16.79A40.49,40.49,0,0,0,1589.5,330.44Zm1365.3,563.1a21.29,21.29,0,0,0-.57-4.23c-6.18-21.13-11.57-42.49-18.95-63.27-3.46-9.74-11.48-12.64-20.1-13.62-16.12-1.83-32.52-.54-48.56-3.91-3.85-.81-4.61,1.38-3.22,4.27,8.58,17.8,14.66,36.52,20.8,55.24,4.4,13.43,15.44,19,28.15,21.32,12.47,2.32,25,4,36.87,8.87C2954.52,900.38,2954.88,900.21,2954.8,893.54ZM2980,1094.45c-.4-15.76-2.53-31.37-3.77-47-1.41-17.81-11.83-27.58-28.33-30.64-10.57-2-20.83-5.17-30.17-10.75-7.3-4.35-7.35-4.33-7.7,4.07a5.31,5.31,0,0,0,0,1.48c2.8,10.76,2,22,4.26,32.8,1.68,8,.86,16.25,3.23,24.25a27.94,27.94,0,0,0,14.19,17.32c13.88,7.59,30,10.1,43.4,18.8,3.19,2.06,5.33,1,5-3.31C2979.81,1099.12,2980,1096.78,2980,1094.45ZM1751.47,2227.81c-.21-19.79-4-36.93-8-54-.63-2.67-1.73-3.65-4.53-2.25a10.87,10.87,0,0,0-3.94,2.87c-5.43,7-13.14,11.5-19,18-3.23,3.58-6.07,7.88-10.23,10.41-10.26,6.24-17.07,16.11-25.85,23.88-3.33,2.94-3.35,6,.25,8.73,4,3.06,6.84,7.29,10.64,10.66,9.33,8.27,18,17.36,26.56,26.44,3.06,3.23,5.22,2.65,7.88.07,2.86-2.78,5.69-5.59,8.64-8.27C1745.26,2254,1752.81,2241.89,1751.47,2227.81ZM2256.86,1914c-12.21-1.92-24.64,4.53-35.46,12.56a93.61,93.61,0,0,0-25,27.67c-.75,1.28-2.39,2.68-1,4.44s3,.78,4.58.45c1.14-.24,2.26-.56,3.41-.73,11.26-1.74,22.2-1,32.36,4.68,3.2,1.8,5.9,4.33,10.17,3.44,8.59-1.79,17.33-2.7,25.73-5.55,10.64-3.61,21.48-6.67,32.19-10.07,5.86-1.86,6.5-4.19,2.61-8.89-1.26-1.53-2.6-3-4-4.45C2290.66,1924.89,2277.91,1914.14,2256.86,1914Zm-291.05,238.7c-4.68.4-8.4.31-11.92,1.09-9.66,2.13-12.16,10.55-14.46,18.33-3.24,10.93-6.07,21.94-11.83,31.92-.93,1.61-2.1,3.55-1,5.12s3.37.61,5.1.34c9.24-1.45,17.69-5.33,26.34-8.63,22.55-8.59,45.22-16.9,67-27.4,2.22-1.07,6.72-.48,6.23-4.36-.4-3.24-4.45-2.78-6.91-3.68C2005.08,2158.31,1985.05,2154.91,1965.8,2152.66ZM2147.93,2127c1.78-.21,3-.24,4-1.47q4.7-5.48,9.76-10.65c7.06-7.2,12.73-15.76,21.15-21.63,6.82-4.75,14.32-8.25,21.67-12,.82-.42,2.15-.56,2.08-1.83-.09-1.72-1.69-1.37-2.69-1.45-7.43-.64-14.86-1.38-22.3-1.69a211.73,211.73,0,0,0-74.91,10.51c-5.46,1.78-10.76,4-16.06,6.26a3.72,3.72,0,0,0-2.63,3.33c0,1.34.81,1.92,2.14,2.25,16,4.06,29.52,13.23,43.63,21.22C2138.46,2122.52,2142.75,2126.2,2147.93,2127Zm-271,12.74c5.88,0,8.66-2.12,9.83-7.78,3.58-17.29,8-34.17,20.09-47.88.76-.86,1.42-2,.46-3.15a3.69,3.69,0,0,0-3.42-1.45c-22.49,1.49-43.37,8.83-63.85,17.57-3.23,1.38-5.37,3.82-3.77,8,2.1,5.5,6.64,9.51,8.73,15a8.91,8.91,0,0,0,2.77,4c5.23,3.78,10.39,7.79,16.07,10.78C1868.1,2137,1872.49,2139.56,1877,2139.78Zm241.43-95.91a35.57,35.57,0,0,1,5.77-1c12.29-.16,20.46-7.35,26.58-16.7,6.73-10.3,9.35-22.55,14-33.87,1-2.56,0-3.89-2.85-3.17a27.77,27.77,0,0,0-4.16,1.62c-8.16,3.58-15.76,8.23-23.69,12.25-17.78,9-35.56,18-53.07,27.57-1,.55-2.11.66-2.1,2.26s1,1.72,2,2.33c3.22,2,7,1.41,10.4,2.69C2100,2041.14,2109.44,2041.43,2118.39,2043.87ZM2337.8,2051c.18-5.52.13-11.83-1.6-18-1.46-5.2-3.47-6.47-8.71-5.27q-19.59,4.51-39.15,9.11c-4.27,1-5.93,4.56-3.49,8s5.38,6.49,7.88,9.88c5,6.73,12.43,10.56,18.3,16.23,6.29,6.08,12.25,12.42,16.63,20.05.8,1.38,1.37,2.81,3.13,2.46s2.68-1.85,2.87-3.66C2335,2077.19,2338.59,2064.76,2337.8,2051Zm-573.58,176.75c.6,1.23-1.47,3.15.76,3.82,1.73.53,3.19-.73,4.37-1.9q9.59-9.47,19.11-19a49.49,49.49,0,0,0,7.23-8.2c1.6-2.51,1.56-4.53-.66-6.62a96.71,96.71,0,0,1-9.08-9.09c-7.71-9.51-15.78-18.74-22.33-29.13-1-1.55-2.07-2.49-4-2.41-2.2.09-2.7,1.77-3.18,3.32-2.13,6.86-3.24,13.69-1,20.86A205.21,205.21,0,0,1,1764.22,2227.79Zm630.6,63.43c1.57,4.73,4.37,9.94,7.2,15.13a2.43,2.43,0,0,0,3,1.07,10.64,10.64,0,0,0,5.5-3.12c5.25-5.73,10.36-11.63,16-16.94,8.7-8.17,16.95-16.75,24.94-25.6a3.51,3.51,0,0,0,.92-4c-.89-2.24-12.06-9.9-14.47-9.82-.95,0-2.25.14-2.76.74-1.75,2.09-4.38,2.94-6.27,4.76-9.83,9.46-19.72,18.85-29.36,28.49C2397.34,2284.12,2394.78,2286.51,2394.82,2291.22Zm-388.7-338.38a42.56,42.56,0,0,0-20.78,7.46c-7.92,5.53-14.92,12.37-22.58,18.31-1.58,1.23-3.09,2.12-2.5,4s2.54.85,3.91.82c25.45-.62,47.91-11.78,71.12-20.25a3.25,3.25,0,0,0,2.36-3c-.07-1.59-1.62-1.78-2.86-2.3C2025.9,1954.23,2016.34,1954.52,2006.11,1952.84Zm236.49,216.95c-2.3-.18-3.6.53-5.1,2.76-6.26,9.33-11.77,19.28-20.45,26.8a94.3,94.3,0,0,0-8.42,8.47c-1,1.16-1.9,2.85-.93,4.54s2.61.72,3.9.45c4.06-.82,8.15-1.59,12.13-2.72,14.8-4.17,28.25-11.26,41.12-19.51,3-1.93,2.9-5.38-.33-7.64-5.85-4.09-11.84-8-17.73-12A5.85,5.85,0,0,0,2242.61,2169.79Zm80-58.54a43.17,43.17,0,0,0-6.19-16c-8.6-13.63-22.61-21.79-33.4-33.19-2.57-2.71-4.14-.73-4.72,2-1.28,6.09-2.67,12.17-3.52,18.33-.36,2.57-.8,5.92,2.46,7.42,14.41,6.65,27.87,15,41.42,23.15.85.52,1.19,2.19,2.82,1.33C2322.92,2113.57,2322.56,2112.43,2322.65,2111.25Zm63.86,115.19c0-1.85-2.16-3.13-5.53-3.59-13.91-1.9-27.78-1-41.66.35-1.61.16-3.56-.36-4.16,1.79a5,5,0,0,0,1.47,5c5.9,5.91,11.49,12.17,17.8,17.6,5.36,4.61,7.4,5.53,13.58-.76,5.12-5.21,10.38-10.28,15.66-15.32A8.61,8.61,0,0,0,2386.51,2226.45Zm-17.65,37.7c1.71-1.38,3.23-2.39,4.5-3.66q18.6-18.51,37.1-37.11c1.14-1.14,3.54-2.19,1.59-4.41s-3.61-.15-5.25.62a9.22,9.22,0,0,0-2.16,2.05q-17.49,17.49-35,35a15.47,15.47,0,0,0-2.86,3.38C2365.24,2262.82,2368,2262.7,2368.86,2264.15Zm18.28,17.67a10.78,10.78,0,0,0,4.68-2.75q18.48-18.52,37-37a13.65,13.65,0,0,0,1.88-2.29,2.53,2.53,0,0,0-.28-3.21c-.94-1.06-2.24-.67-3.23-.29s-1.48,1.29-2.19,2q-17.26,17.27-34.52,34.54a28.46,28.46,0,0,0-4.35,4.72C2385.29,2278.86,2384.32,2281,2387.14,2281.82Zm-682.38,8.8a23.73,23.73,0,0,0-1.85-2.18c-12.52-12.1-25-24.22-37.64-36.22-1.34-1.28-3.1-3.86-5.36-1.34-2,2.27.54,3.46,1.74,4.85,9.54,11,21.72,19.39,31.14,30.53,2.27,2.69,5.26,4.43,7.94,6.58,1,.78,1.92,1.39,3.09.47A2.44,2.44,0,0,0,1704.76,2290.62Zm-34.4-49.65a5.24,5.24,0,0,0-2,1.2c-1.12,1.49.69,1.89,1.35,2.63,11.91,13.21,26,24.16,38,37.32,1.6,1.76,3.6,3.55,5.92,1.33,2.68-2.57-.54-3.8-1.8-5-12.46-12-25-23.81-37.6-35.69C1673.29,2241.85,1672.54,2240.61,1670.36,2241Zm-17.71,18.36c-1.86-.56-2.19.76-2.77,1.38-1.18,1.27,0,2.39.8,3.2,4.34,4.52,9,8.69,13.7,12.86,9,8,16.7,17.49,26.21,25.08,1.65,1.32,2.54,2.34,4.35.47s.11-3.15-.89-4.11q-19-18.34-38.22-36.52A27.78,27.78,0,0,0,1652.64,2259.33Zm726.07,13.55a34,34,0,0,0,3-2.41q19-19,38-38c1.36-1.36,3.49-2.73,1.19-4.86-2.08-1.92-3.16.22-4.38,1.45l-37.34,37.34a16.82,16.82,0,0,0-2.73,2.89C2375.23,2271.37,2376.84,2272.12,2378.72,2272.87Zm-624.79-257.63c.53-3.62-1.15-4.54-4.42-2.44-2.84,1.82-5.36,4.13-8.2,6-2.13,1.37-4.95,2.87-3.66,5.44a6.36,6.36,0,0,0,7.07,3.07C1749.74,2026.29,1753.55,2021.66,1753.93,2015.24Z" transform="translate(-436.65 262.08)"/><path class="cls-3" d="M1077.88,1115.85c2.1-1.65,1.19-4.07,1.1-6-.51-10.24,1.09-20.39,1.3-30.61.18-8.57.27-17.39,2-25.94.61-2.93,2.37-4.2,4.95-2.35,12.17,8.74,26.05,14.4,39,21.74,11.15,6.32,17.09,15.84,17.55,28.16.74,19.61.51,39.25.66,58.88,0,1.92.65,4.25-1.74,5.26-1.95.82-3.2-.71-4.71-1.76-11.83-8.25-25.37-13-38.36-18.94-7.88-3.6-16-8-19.78-16.93-.4-.95-.51-2.35-2-2.54Z" transform="translate(-436.65 262.08)"/><path class="cls-3" d="M2981.88,1157.85c-2.44,5.93-1.23,12.26-1.86,18.39-.9,8.73-.81,17.56-1.26,26.35-.11,2,0,4.14-2.54,5.43s-3-1.15-4.35-1.93c-7.5-4.31-14.77-8.79-23.1-11.75-10-3.54-19.72-8.52-26.1-17.59a27.54,27.54,0,0,1-4.74-17.46c.93-19.84,1.63-39.69.42-59.55-.07-1.13-.36-2.45.94-3.12a3.41,3.41,0,0,1,3.79.23c9,7.34,20.21,9.59,30.9,12.65,8.7,2.49,15.39,7.43,21.26,13.79,3.45,3.74,4.54,8.71,5.59,13.58.22,1-.46,2.41,1.07,3Z" transform="translate(-436.65 262.08)"/><path class="cls-3" d="M1670.88,2332.85c-8.53-8.75-17.28-17.3-25.53-26.31-6-6.58-11.94-13.24-18.43-19.4-3.43-3.25-2.59-7.26,1.5-10,3.2-2.11,6.77-3.78,9.63-6.28,3.62-3.16,6.33-2,9.47.53,4.6,3.65,8,8.36,12,12.59,7.37,7.86,15.95,14.49,22.91,22.81,4.19,5,4.31,8.07,0,13.16-3.58,4.22-6.1,9.32-10.53,12.87Z" transform="translate(-436.65 262.08)"/><path class="cls-3" d="M2039.88,167.85h23l.07,1h-23.13Z" transform="translate(-436.65 262.08)"/><path class="cls-3" d="M2039.88,167.85l-.07,1-14.94-.17q0-.4,0-.8Z" transform="translate(-436.65 262.08)"/><path class="cls-3" d="M2062.95,168.83l-.07-1h9q0,.39,0,.78Z" transform="translate(-436.65 262.08)"/><path class="cls-3" d="M1963.58,1270.45c-13,0-26-.2-39,.12-4.16.1-5.11-2-5.37-5.13-.95-11.48-2.83-22.83-4.88-34.15a810.86,810.86,0,0,0-21-86.49c-16.46-55.38-37.33-109.14-59.45-162.44-10.54-25.4-21.68-50.56-31.83-76.11-5.06-12.76-7.41-26.45-10.74-39.79-4-16-6.29-32.42-9.23-48.66-1.47-8.13-1.41-16.54-2.13-24.82-1.36-15.71-1.14-31.44-.73-47.18,1.07-40.84,10.89-79.63,28.12-116.45,8.22-17.56,18.91-33.8,30.34-49.58,15.39-21.22,34.14-39.29,52.72-57.46,8.8-8.6,18.48-16.48,28-24.37,25.18-20.78,50.86-41.05,73.93-64.24,11-11.06,21.35-22.75,28.73-36.76,4-7.53,11.69-8.13,15.72-.94,15.21,27.15,38.3,46.94,61.32,66.83,22.85,19.75,46.52,38.54,68.82,58.93,28.31,25.87,53.68,54.24,73.18,87.44a279.85,279.85,0,0,1,33.59,89.28,333.13,333.13,0,0,1,5.63,80.35,489.63,489.63,0,0,1-13.22,91c-3.09,12.71-5.52,25.63-10.42,37.79-7.42,18.41-15.42,36.58-23,54.93-9.58,23.24-19.13,46.5-28.39,69.87q-17.91,45.21-32.84,91.5a896.2,896.2,0,0,0-26.47,101.48c-2.66,13.49-4.36,27.19-6.17,40.83-.46,3.48-1.77,4.33-5.06,4.32q-39.25-.17-78.5,0c-3.27,0-4.12-.86-4.16-4.14-.28-21.07-.12-42.17-1.48-63.18-1-15.11.86-30.23-.9-45.22s.79-29.89-1-44.72c-1.83-15.42.73-30.89-1-46.22-1.7-14.92.71-29.89-1-44.72-1.74-15.09.8-30.23-1-45.22s.82-30.23-1-45.22c-1.83-15.25.72-30.55-1-45.72s.7-30.22-1-45.22.77-29.89-1-44.72c-1.82-15.42.73-30.89-1-46.22-1.7-14.92.7-29.89-1-44.72-1.71-15.08.74-30.23-1-45.22s.56-30.19-.93-45.23a125.66,125.66,0,0,1-.84-16.77c.13-3.87-3.55-5.87-7.1-6-3.9-.17-6.68,2.1-7,6.24s-.35,8.31-.44,12.47q-.53,25.7-1,51.4c-.67,33.6-1.12,67.21-2.1,100.8-.43,14.47-.59,28.94-.9,43.41-.67,31.6-1.1,63.21-2.12,94.8-.42,13-.53,25.94-.84,38.91-.78,32.6-1.15,65.21-2.14,97.8-.44,14.47-.57,28.94-.89,43.41-.69,31.6-1.12,63.21-2.11,94.8-.44,14-.55,27.94-.88,41.91-.39,16.13-.78,32.27-.93,48.4,0,3.5-1.43,4.12-4.48,4.09C1989.91,1270.38,1976.74,1270.45,1963.58,1270.45Z" transform="translate(-436.65 262.08)"/><path class="cls-3" d="M2741,1075.91c-.61,48.06-13.81,92.16-41.7,131.56-17.71,25-40.54,44.41-66.61,60.31-24.78,15.12-52.15,21.58-80.38,25.83-6.68,1-13.37-.53-20,1.2-3.71,1-7-1.28-10.49-2.14a3.91,3.91,0,0,1-2.76-4.23c1.49-5.85,1.78-11.81,2.41-17.74,1.57-14.8,3.78-29.45,1.91-44.57-1.11-9-2.32-17.77-5.73-26-4.69-11.32-12.08-20.56-21.88-28.39s-19.75-15.8-31.23-21.2c-35.32-16.59-69.8-14.63-103.31,5.29-24.75,14.71-42.8,35.76-57.27,60.25-10.89,18.44-17.76,38.43-23.1,59-1.82,7-4.33,8.87-11.49,7.28a305.05,305.05,0,0,0-33.86-5.63c-8.73-.93-17.55-1.58-26.32-2.24-11.37-.87-22.83-1.42-34.14-3.12-3.32-.5-4.87-4.76-3.84-9.22,4.37-18.84,7.13-38,11.94-56.78,3.53-13.76,7.26-27.45,11.36-41.05a735.9,735.9,0,0,1,33.39-88.85,681.24,681.24,0,0,1,34.06-65.8,533.27,533.27,0,0,1,36.61-54.56,369,369,0,0,1,33.67-37.88,272.12,272.12,0,0,1,54.58-42c33.72-19.62,70-31.71,109.21-34.41,43.75-3,84.9,5.77,123.16,27.1,27.58,15.37,50.72,36.07,69.92,61.15,20.88,27.27,36.48,57.18,44.87,90.61A231.16,231.16,0,0,1,2741,1075.91ZM2611.87,950.74a30.46,30.46,0,0,0-2.71,1.92c-13.36,12.48-26.84,24.85-40,37.57-3.06,3-5.17,3.12-8.8,1.28-16-8.11-32.18-15.89-48.32-23.75-.95-.46-1.86-1.52-3.4-.56a23,23,0,0,0,.77,2.18c7.88,16.85,15.68,33.73,23.74,50.49,1.36,2.83,1.35,4.45-1,6.78-12.79,12.87-25.38,25.93-38,39-.86.89-2.29,1.51-1.94,3.64,2.41-.28,4.83-.55,7.25-.84,17-2.07,34-4.08,50.94-6.29,2.52-.33,3.89.09,5.11,2.45,6.92,13.44,14,26.8,21.06,40.17,2.12,4,4.41,7.95,7.21,13,3.27-16.87,6.29-32.51,9.35-48.14.89-4.55.6-10.19,3.23-13.32,2.87-3.41,9-2.41,13.65-3.27,15.73-2.9,31.5-5.59,47.26-8.36a2.68,2.68,0,0,0-1.74-2.1c-16.28-9-32.51-18.05-48.88-26.86-3-1.59-3.84-3.07-3.32-6.49C2606.36,990,2609,970.73,2611.87,950.74Z" transform="translate(-436.65 262.08)"/><path class="cls-3" d="M1547.08,840.21c33.63.19,65.74,7.36,96.56,20.76,37.45,16.29,69.32,40.27,96.6,70.36,22.08,24.36,40.77,51.26,57.47,79.58q16.67,28.26,30.41,58a757.19,757.19,0,0,1,36.71,96.44,734.75,734.75,0,0,1,19.47,79.1c1.26,6.68,2.24,13.41,3.29,20.12.66,4.21-.82,6.54-5.45,6.92-19,1.54-38,3.24-57,4.94a269.6,269.6,0,0,0-34.34,5.68c-8.3,1.84-10.45,1-12.64-7.33-4.61-17.5-10.24-34.58-18.68-50.66-6.72-12.8-15-24.42-24.1-35.68a144.24,144.24,0,0,0-38.66-33.26,109.94,109.94,0,0,0-43.63-14.88c-22-2.72-42.27,1.68-61.51,11.54-16.35,8.38-30.91,19.37-42.29,34-8.16,10.52-11.72,22.89-13.45,35.86-2.86,21.52.78,42.72,3.28,64,.6,5.07-.71,6.94-5.68,8-9.44,2-18.87.79-28.19-.42-16.64-2.17-33.1-5.47-49-11.14-16.53-5.91-31.57-14.65-45.91-24.71-11-7.71-21.63-15.9-30.77-25.69a232.21,232.21,0,0,1-30.38-40.52c-15-25.45-24-53-28.86-81.89-2.21-13.12-2.41-26.48-2.09-39.82.75-31.91,8.22-62.16,21.57-91.09a265,265,0,0,1,29.56-49.09c7.72-10.19,15.88-20.22,25.48-28.77,13.89-12.38,28.53-23.86,44.9-32.86,28.31-15.58,58.52-24.81,90.87-26.92C1536.11,840.44,1541.58,840.31,1547.08,840.21Zm3.31,127.38-1.06-.8c-17.17,8.37-34.38,16.64-51.45,25.19-3.09,1.55-4.85,1.07-7.2-1.18-10.44-10-20.95-20-31.69-29.64-3.5-3.15-6.33-7.21-11-9.49a32.9,32.9,0,0,0,0,4.24c2.47,17.27,4.84,34.56,7.58,51.8.68,4.29-.32,6.5-4.28,8.54-11.36,5.88-22.52,12.13-33.59,18.55-5.21,3-11,5.18-16.24,9.66,1.31.26,1.88.38,2.46.48,18.48,3.28,36.95,6.65,55.46,9.76,3,.51,4.17,1.6,4.67,4.58,1.37,8.19,3.14,16.31,4.72,24.47,2.12,10.94,4.21,21.89,6.51,33.85,1.17-1.83,1.74-2.6,2.19-3.45,8.65-16.27,17.34-32.53,25.85-48.87,1.33-2.56,2.67-3.68,5.71-3.24,9.53,1.39,19.1,2.51,28.67,3.68s19.25,2.29,29.49,3.5a13.47,13.47,0,0,0-3.52-5.1c-12.2-12.51-24.34-25.09-36.63-37.52-2.06-2.08-2.52-3.64-1.16-6.41,5.48-11.18,10.68-22.5,15.93-33.79C1544.73,980.16,1547.53,973.86,1550.38,967.58Z" transform="translate(-436.65 262.08)"/><path class="cls-3" d="M2060.23,1414.93c23.93,1.39,47.86,2.11,71.8.34,6.76-.5,6.71-.47,7.86,6.12,5.57,32,12.71,63.64,24,94.2a431.61,431.61,0,0,0,35,73c5.79,9.66,11.51,19.36,17.87,28.65,2.32,3.39,1,6.3-.45,9.34-7,15.21-17.46,28.12-28,40.9a583,583,0,0,1-48.91,51.87c-23,21.79-46.85,42.63-73.51,59.94a136.92,136.92,0,0,1-24.1,12.72c-9.68,3.84-18.53,2.71-27.8-1.28-17.78-7.67-32.95-19.37-48.15-30.91-7.16-5.44-13.89-11.62-20.76-17.51-15.81-13.55-31.11-27.6-45.54-42.58-8.88-9.23-17.24-19-25.62-28.66a365.65,365.65,0,0,1-26.62-35.54c-6.59-9.82-6.37-17.42.84-27.6,13.38-18.87,24.16-39.52,33.9-60.61a387.68,387.68,0,0,0,17.42-43.81c7.74-24.08,14.13-48.51,17.79-73.59.42-2.9,1.56-5.7,2-8.6,1.09-6.7,1-6.47,7.48-6a499.28,499.28,0,0,0,65.3.07c4.15-.25,8.32-.22,12.46-.51,2.74-.19,3.28,1.07,3.41,3.53q1.91,36.07,4,72.12,2.94,50.22,6,100.43,1.68,27.33,3.62,54.64a20.58,20.58,0,0,0,5.62,12.47c1.33,1.48,2.14,1.93,3.9.35,4.56-4.08,7.3-9,7.2-15.11-.21-13.83,1.72-27.53,1.94-41.36.18-11.61,1.43-23.24,2-34.9.51-11.3,1.42-22.59,2-33.91.6-11.81,1.39-23.61,2-35.42.59-11.13,1.14-22.31,2.11-33.39.69-8,.45-16.05,1.65-24,1-6.63.6-13.44,1.16-20.17.37-4.49,1.44-6,5.71-5.19A19.8,19.8,0,0,0,2060.23,1414.93Z" transform="translate(-436.65 262.08)"/><path class="cls-3" d="M2028.49,1297.25c52.51,0,95.17-.1,137.82,0,32.24.1,64.44,1.47,96.31,6.72,16.67,2.75,33.22,6.28,48.39,14.19,7.44,3.89,14.3,8.72,17.61,16.86,4.06,10,.17,19.3-10,25.69-9.95,6.26-20.92,9.92-32.12,13-26,7.1-52.68,10.43-79.45,13-15.53,1.51-31.11,2.28-46.69,3.15-25.09,1.4-50.16.36-75.24.49-53.32.27-106.64.15-160,0-13.8,0-27.61-.75-41.41-.92-14.11-.17-28.1-1.71-42.14-2.84a393,393,0,0,1-67.8-11.2c-11.49-3-22.78-6.53-32.57-13.63-13.64-9.89-14.75-22.2-4.33-34.12,5.49-6.28,13.6-9.62,21.4-12.52,22.22-8.28,45.48-11.64,69-14.05,20.18-2.08,40.4-2.87,60.68-3.36C1938.08,1296.55,1988.22,1297.79,2028.49,1297.25Zm-3,64h3.5c61.72-.47,123.49,1.86,185.09-4,16.18-1.54,32.44-2.63,48-8.15,2.94-1,5.93-2.14,6.08-5.67.14-3.36-2.85-4.56-5.38-5.84-9.07-4.6-19-5.74-28.88-7-29.73-3.91-59.67-4.44-89.57-4.48-82.78-.11-165.56-.76-248.33.46a632.58,632.58,0,0,0-68.61,4.33c-10.05,1.25-20.09,2.77-29.51,6.8-2.82,1.2-5.88,3-5.67,6.25s3.32,4.71,6.19,5.81a84.78,84.78,0,0,0,17.33,4.49c35.9,5.56,72.11,6.71,108.35,7C1957.89,1361.45,1991.71,1361.25,2025.53,1361.25Z" transform="translate(-436.65 262.08)"/><path class="cls-3" d="M2318.35,1611.51c-22.17.63-39.37-7.64-55.42-19.44a134.35,134.35,0,0,1-19.8-17.7,287.47,287.47,0,0,1-28-37c-20.75-31.81-34.46-66.72-46-102.63-1.77-5.49-3.43-11-4.86-16.6-.65-2.54-.36-4.31,3.49-4.45,30.72-1.08,61.16-4.58,91.08-11.8,3.53-.85,4.32.16,5,3.05,4.07,16.39,8.35,32.74,16.26,47.8,11.42,21.77,26.92,39.73,49.2,51.06,24.1,12.25,49.3,12.77,75.14,7.08,8.77-1.93,16.47-6.54,25-9,4.39-1.29,6.13.14,5.32,4.59-4.87,26.78-15.9,50.49-35.88,69.38-17.33,16.39-38.2,26.5-61,32.79C2330.89,1610.55,2324,1612.33,2318.35,1611.51Z" transform="translate(-436.65 262.08)"/><path class="cls-3" d="M1742.74,1611.51c-17.06.4-30.81-5.3-44.53-11a131.92,131.92,0,0,1-29.62-16.94c-12.67-9.65-22.36-21.89-30-35.86-6.78-12.32-10.74-25.61-14.12-39.1-.56-2.24-1.4-5.38.77-7,1.89-1.42,4.49,0,6.54,1a117,117,0,0,0,50.41,11.77c21.26.2,40.88-5,58.43-17.47,6-4.25,12-8.41,16.94-13.81a141.37,141.37,0,0,0,31.72-56q3.47-11.66,6.46-23.45c.53-2.09.94-2.34,3.09-1.85a440.53,440.53,0,0,0,58.85,9.75c10.9,1,21.83,1.77,32.76,2.23,3.81.16,5.09.46,4,4.86a438.61,438.61,0,0,1-31,84.07c-14.29,29.35-31.7,56.65-55.59,79.3-14.25,13.51-30.21,24.22-49.93,28.13A63.47,63.47,0,0,1,1742.74,1611.51Z" transform="translate(-436.65 262.08)"/><path class="cls-3" d="M2076.59,2016.08c1.56-5.74,3-11.51,4.69-17.22,3.5-11.89,5.12-24.38,10.38-35.69,5.95-12.8,11.67-25.75,23.94-34.4,8.82-6.23,18.68-10.15,28.32-14.59,8-3.67,16.12-7.06,24.34-10.17,17.11-6.46,34.63-10.31,53.19-9.37a89.28,89.28,0,0,1,24.67,5c1.35.46,3.46.37,3.45,2.17s-2.06,1.85-3.46,2.13a76.84,76.84,0,0,0-24,9.18,96.93,96.93,0,0,0-34.52,34.24c-9.8,16.56-23.76,28-40.65,36.76-20.75,10.72-41.13,22.15-61.68,33.24-1.3.7-2.84,1-4.13,1.65C2077.69,2020.9,2076.74,2019.42,2076.59,2016.08Z" transform="translate(-436.65 262.08)"/><path class="cls-3" d="M1801.7,2157.71c-11,.82-20.91-1.93-27.77-10.88-3.53-4.61-5.68-10.38-7.93-15.84a178.25,178.25,0,0,1-11.86-42.39c-2.78-19.53-.25-38.91,5.57-57.8.6-1.95,1.72-3.53,3.91-3.93s2.72,1.5,3.54,2.85a74.21,74.21,0,0,0,25.75,25.5c13.69,8.24,23.33,19.72,26.46,36.06,1.81,9.43,4.78,18.74,9.65,27,4.56,7.73,10.14,14.92,17.59,20.41,5.38,4,5.12,4.9-1,7.52a169.7,169.7,0,0,1-34.5,10.75A80.59,80.59,0,0,1,1801.7,2157.71Z" transform="translate(-436.65 262.08)"/><path class="cls-3" d="M1360.23,1725.87c9-.86,15.7,3.8,21.25,9.88,8.31,9.1,17.38,17.42,25.81,26.35,9.24,9.8,19.88,17.95,29.78,27,2.94,2.67,2.56,5-1.35,6-9.52,2.39-17.07,8.53-25.59,12.82-11.46,5.76-23.68,9.61-36,5.29-6.84-2.39-13.94-5.79-19.62-11.2-10-9.51-18.47-20.39-28.46-29.93-7-6.69-12.5-15-18.63-22.57-1.63-2-3.75-3.49-5.15-5.9-2.13-3.66.07-5.17,2.55-5.12,16.45.33,30.74-7.71,46.1-11.54C1354,1726.16,1357.18,1726.44,1360.23,1725.87Z" transform="translate(-436.65 262.08)"/><path class="cls-3" d="M1309.46,607.09c.32,6.74-1.9,12.5-5.81,18q-13.78,19.42-26.86,39.33c-4.92,7.44-9.32,15.24-13.91,22.9-1.05,1.76-2.12,3.64-4.43,3.41s-2.37-2.62-2.84-4.25c-3.33-11.43-10.58-20.66-17.38-30-6.21-8.52-8.47-18.34-11-28-.85-3.28,0-8.07,2.43-11.69,11.47-17.35,22.74-34.83,34.39-52.05A202.87,202.87,0,0,1,1278.79,546c2.64-3.05,4.11.18,4.84,2.12,3.91,10.48,9.94,19.77,16,29,4.77,7.25,9.13,14.56,9.74,23.51C1309.54,602.82,1310,604.94,1309.46,607.09Z" transform="translate(-436.65 262.08)"/><path class="cls-3" d="M1968.54,2055.46c-6.4.44-12.8.91-19.2,1.3-1.6.1-3.51.49-4.24-1.58-.55-1.56.17-2.85,1.35-4,11.85-11.55,20.14-25.78,29.21-39.38,5.16-7.75,12.17-13.24,19.36-18.77,14.38-11.06,32-15.26,47.93-23.07,6.28-3.08,12.56-6.27,18.49-10,5-3.11,10.59-4.84,15.84-7.36,2.85-1.37,5.11-.19,3.69,3.62-6.72,18-9.67,37.11-16.36,55.14-5,13.44-13.9,22.31-27.46,27.19-18.12,6.52-36.33,12.56-55.42,15.52-4.36.68-8.76,1.12-13.14,1.67Z" transform="translate(-436.65 262.08)"/><path class="cls-3" d="M1909.91,2054.51c-4.59-.21-9.05-1.28-13.57-2-7.71-1.22-15.53-1.62-23.26-3-11.13-1.91-22.35-3.29-33.51-5-2.9-.45-4.93-4.74-3.79-8.08,3.65-10.63,8.31-21.17,15.51-29.49,12.9-14.93,29.55-22.28,50-18.89s41.28,3.89,62,4.18c2.81,0,5.62.31,8.42.6,3.31.35,4.19,2.19,2,4.65-12.81,14.43-21.12,32.3-35.2,45.75A40.16,40.16,0,0,1,1909.91,2054.51Z" transform="translate(-436.65 262.08)"/><path class="cls-3" d="M2340.48,224.25c9.89.15,18.08,3.59,26.17,6.91,18.54,7.61,37.49,14.31,55,24.34,1.53.88,3.71,1.22,3.73,3.53s-2,2.78-3.57,3.69c-6.24,3.66-11.05,9-16.15,14-9.31,9.1-19,17.7-31.65,21.73-6.89,2.2-14.38,3-21.39.55-21.91-7.62-43.68-15.61-65.48-23.53-1.9-.69-4.55-.72-5.08-3.36-.58-2.88,2.17-3.36,3.77-4.63,10.7-8.54,18.88-19.51,28.28-29.29C2321.42,230.51,2330.43,225.28,2340.48,224.25Z" transform="translate(-436.65 262.08)"/><path class="cls-3" d="M1942.32,2079.56c22.4-.29,42.23,3.09,62.11,5.89,10.86,1.53,21.65,3.26,32.19,6.43,4.32,1.3,3.86,3,1,5.19-4.49,3.38-9.34,6.28-13.37,10.28-7.11,7.09-14.33,14.06-21.44,21.15-8.77,8.74-19.42,14-31.61,14.65a46.31,46.31,0,0,1-15-1.26,25.09,25.09,0,0,0-7-.42c-15.25.14-30.45-1.58-45.72-1.09-5.14.16-6.3-1.87-4.75-6.74,3.41-10.68,5.73-21.69,10.83-31.85a49.74,49.74,0,0,1,17.07-19.71C1932.07,2078.52,1938.62,2080.43,1942.32,2079.56Z" transform="translate(-436.65 262.08)"/><path class="cls-3" d="M2061.33,2103.9c13-.73,23.7,3.81,34.27,8.65,16,7.33,31.24,16.17,46.62,24.73,1.16.64,2.23,1.45,3.34,2.18,2.88,1.89,3.63,3.61.13,5.87-15.69,10.12-30.52,21.74-48.78,27.32a119.14,119.14,0,0,1-15.46,3.73,9.84,9.84,0,0,1-6.67-1.27c-21.2-12.18-44.14-19.79-67.72-25.76-1.64-.41-4-.27-4.6-2.38-.68-2.37,1.56-4.12,2.92-4.76,10.22-4.83,15.27-15.09,23.46-22.11,7.23-6.2,14.08-12.19,23.07-15.52C2055.35,2103.31,2058.83,2104.23,2061.33,2103.9Z" transform="translate(-436.65 262.08)"/><path class="cls-3" d="M1785.61,201.94c4.15-.79,5,1.5,3.75,5.19-3.93,11.42-4.26,23.41-6.1,35.18-2.78,17.86-11.95,31.62-30,37.42q-28,9-54.9,20.6c-10.72,4.65-11.32,4.18-10.35-7.12,1-12.08,1.74-24.21,3.46-36.19,2.48-17.27,10.29-30.37,28.6-35.56,20.41-5.79,40.55-12.54,60.78-18.94A14.84,14.84,0,0,1,1785.61,201.94Z" transform="translate(-436.65 262.08)"/><path class="cls-3" d="M2691.87,453c14.27-1.41,22.45,8.27,30.83,17.61,10.06,11.21,19.52,22.94,30.33,33.48a72.08,72.08,0,0,1,11.36,13.75c1.83,3,1.88,4.81-1.91,5-16.13,1-30.64,7.9-45.84,12.32-10.92,3.17-20.62,1.66-29.34-6.65-13-12.41-24.92-25.9-38-38.2-3.37-3.16-6.32-6.76-10.35-9.21-2.75-1.67-4.15-4.64-5.87-7.19-1.54-2.27-1.49-4.35,2.21-4.72,12.88-1.28,24.74-5.82,36.34-11.35C2677.89,454.87,2684.42,452.27,2691.87,453Z" transform="translate(-436.65 262.08)"/><path class="cls-3" d="M1790.68,2169.91c12.63-.54,25.16-1,37-5,11.11-3.68,22.21-7.34,33.38-10.86,15.55-4.9,31.34-2.39,47-2.67,6.64-.12,13.3.57,19.94.38,3.79-.11,4.17,1.64,3.63,4.48a8.33,8.33,0,0,1-1.24,3.74c-4.62,5.45-4.34,12.29-5.68,18.7-2.68,12.87-9.24,23.52-18.75,32.51-2.94,2.78-6.86,3.28-10.12,3.33-9.06.12-18.13.69-27.25-.62-8.77-1.25-17.43-2.65-25.73-5.71a161.08,161.08,0,0,1-37.58-19.84C1798.93,2183.82,1793,2178.34,1790.68,2169.91Z" transform="translate(-436.65 262.08)"/><path class="cls-3" d="M2790.34,622.8c-18.62-.43-33.27-7.62-43.43-23.72a219.53,219.53,0,0,0-23.85-30.77c-3.39-3.71-6-8.08-9.62-11.67-3.48-3.42-2.53-6.07,2.1-7.47,12.09-3.66,24-8,36.35-10.69,18.43-4,31.9-.5,44.57,17.25,12.39,17.36,24.09,35.21,36,52.9,2.8,4.16,1.84,6.3-3.09,6.87-12.72,1.49-24.88,5.84-37.63,7.14Z" transform="translate(-436.65 262.08)"/><path class="cls-3" d="M1770.79,2007.21a34.53,34.53,0,0,1,4.41-15.16,188,188,0,0,1,27.17-37.52c13.11-13.82,29.89-22.09,48.15-27.3a5.43,5.43,0,0,1,1-.06c3.31-.29,7.82-1.74,9.59.29s-1.6,5.59-3,8.25c-5.84,10.85-7.09,22.79-7.9,34.64-1,13.81-6.3,25.56-13.95,36.67-3.28,4.76-6,9.88-9.12,14.78-5.46,8.66-6.22,18.79-9,28.29-.56,1.89-.63,4-3,4.7-2.75.86-2.44-2.27-3.71-2.84-5.43-2.4-10.22-5.87-15.4-8.66-8-4.34-14.56-10.25-18.91-18.28C1774,2019.41,1770.94,2013.72,1770.79,2007.21Z" transform="translate(-436.65 262.08)"/><path class="cls-3" d="M1147.24,1464c16.8,5.53,35.51,1.23,53.39,5,9.62,2,17.39,7.5,21.4,16.84,7.65,17.79,16.27,35.1,24.78,52.47a97.38,97.38,0,0,1,4.55,10.45c1.35,3.86-.08,5.18-4.15,4.42-9.44-1.78-18.82-1.31-28.42-.78-11.84.65-24.21,2-35.62-3.31-6.28-2.92-9.71-8.74-12.46-14.63-10.07-21.58-19.88-43.28-27.74-65.8C1141.81,1465.37,1142.83,1463.75,1147.24,1464Z" transform="translate(-436.65 262.08)"/><path class="cls-3" d="M2397.13,2214.11c-7.59-1-14.48-1.84-21.34-2.86-6.12-.91-12.23-.52-18.33-.14-12.63.78-25.37,3.38-37.71-1.52a59.42,59.42,0,0,1-17.1-10.64c-7.6-6.64-15.59-12.8-23.35-19.23-6.86-5.68-14.18-10.63-21.52-15.58-1.17-.79-2.54-1.73-2.42-2.87s1.69-2,3-2.24c15.69-2.83,30.2-10.22,46-12.46,16.83-2.39,33.68-1.56,48.71,7.43,6.2,3.71,11.61,9.1,16.55,14.49,5.8,6.34,12.28,12,18,18.43,4.91,5.57,9.72,11.18,14.17,17.12,1.68,2.24,3,4.47,1.55,7.28S2398.63,2213.39,2397.13,2214.11Z" transform="translate(-436.65 262.08)"/><path class="cls-3" d="M2234.76,193.89c10.82.54,21.16,3.81,31.63,6.21,13.24,3,26.34,6.67,39.46,10.23a74,74,0,0,1,10.2,3.91c2.13.94,2.82,2.47.45,4-14,9.19-23,23.23-34.26,35.13-9.15,9.69-20.71,13.45-33.49,10.23-19.31-4.86-38.71-9.2-58.28-12.84a14.57,14.57,0,0,1-1.93-.49c-6.73-2.24-6.56-2.68-2.35-8.39,6.38-8.66,12.18-17.75,18.27-26.63,4.23-6.17,8.88-11.89,15.12-16.31C2224.21,195.66,2228.83,193.1,2234.76,193.89Z" transform="translate(-436.65 262.08)"/><path class="cls-3" d="M2774.65,1707.52c1,5.57-.69,10.28-4.17,14.73-15.11,19.32-30.66,38.27-47.29,56.31-4.1,4.45-5.13,4.21-6.32-1.44-2.69-12.68-7.31-24.65-12.22-36.6-2.92-7.11-5.35-14.7-5.6-22.39-.35-11,4.66-20.18,11.71-28.41,7.65-8.94,14.67-18.37,21.6-27.88,4.59-6.3,9.76-12.18,14.06-18.72,1.44-2.19,4.66-1.06,4.94,1.78,1.11,11.46,7.45,20.71,12.42,30.57C2768.88,1685.61,2775.22,1695.4,2774.65,1707.52Z" transform="translate(-436.65 262.08)"/><path class="cls-3" d="M2233.56,2087.36c10.75-1.67,19.68,4.75,29.27,8.43,14.55,5.58,27.61,14.19,41.05,22a113.51,113.51,0,0,1,18.1,13c.7.61,1.87,1.06,1.37,2.3-.38.93-1.4.76-2.19.77-19.29.4-37.27,6.69-55.53,12-15.37,4.46-30.58,3.11-45.83-2.45-17.18-6.26-34.93-10.78-53.56-9.39-3.31.25-3.69-1-2.48-3.74,1.43-3.24,3.86-5.66,6.23-8.1,5.88-6.08,11.46-12.56,18-17.9,8-6.57,17.72-10.28,27.32-14C2221,2088,2226.95,2086.66,2233.56,2087.36Z" transform="translate(-436.65 262.08)"/><path class="cls-3" d="M2534.77,319.25c8.11-1.93,13.87,2.93,19.95,6.49,13.31,7.8,25.18,17.68,37.75,26.55a154.62,154.62,0,0,1,14,11.1c3,2.67,2.71,5.22-1,6.21-14,3.76-25.73,12.16-38.67,18-7.62,3.47-15.65,6.05-23.88,6.47-6.39.32-12.48-3.3-17.65-6.86-15.46-10.64-31.49-20.37-47.3-30.44-3.62-2.3-4.08-6.25-.49-7.7,13-5.27,22.86-15.13,34.48-22.36C2518.86,322.49,2526.15,318.08,2534.77,319.25Z" transform="translate(-436.65 262.08)"/><path class="cls-3" d="M1904.81,1921.25c26.55-.51,51.28,7.23,75.51,17.08,2.91,1.19,5.82,2.41,8.61,3.86,1,.53,2.91.26,2.89,2.19,0,1.72-1.52,2-2.7,2.54a79.23,79.23,0,0,0-21.66,13.93c-3.82,3.39-7.32,7.1-11.38,10.27-10.58,8.26-22.42,10.06-35.54,8.87-10-.9-20.05-3.48-30.23-1.19a12.82,12.82,0,0,1-4.49,0c-7-1-13.42.57-19.73,3.58-4.68,2.23-5.93,1.46-5.75-3.79.47-13.76.39-27.86,7.24-40.27,5.52-10,13.66-17.28,26.24-17.11C1897.5,1921.29,1901.16,1921.25,1904.81,1921.25Z" transform="translate(-436.65 262.08)"/><path class="cls-3" d="M1207.55,797.55a16,16,0,0,1-1,6.41q-10.27,31.63-21.74,62.84c-1.69,4.59-3.57,5.11-6.46,1.51-7-8.75-15.55-15.69-24.52-22.37a59.36,59.36,0,0,1-19.41-25.33c-1.58-3.85.1-8.37,1.71-12.35q13.35-32.91,26.73-65.8c.8-2,1.47-4.5,3.67-4.93,2.5-.49,3.62,2.16,4.72,3.85,6.57,10,14.69,18.64,23.29,27A41.76,41.76,0,0,1,1207.55,797.55Z" transform="translate(-436.65 262.08)"/><path class="cls-3" d="M1301.07,1725.45c-6.56-1-16.62-3.51-24.34-13.33-13-16.49-25.71-33.05-36.56-51-1.49-2.47-4.62-5.22-3-8s5.11-.35,7.71-.22c16.26.78,32-3.11,47.9-5.11,10.57-1.33,20.2,1.4,26.56,10.72,10.75,15.75,22.72,30.54,34.79,45.26a31,31,0,0,1,3.33,4.92c.7,1.3.53,2.71-1.27,3.1C1339.11,1715.52,1323.88,1726,1301.07,1725.45Z" transform="translate(-436.65 262.08)"/><path class="cls-3" d="M2857.28,1453.75c-.52-10.06,4.79-18.44,8-27.42,4-11.4,8.24-22.75,12.29-34.15,2.19-6.17,2.82-6.45,7.84-2.3,12.38,10.24,25,20.27,34.89,33.11,6.71,8.74,10.86,17.9,6.79,29.89a406.37,406.37,0,0,1-24.83,58.88c-1.16,2.2-.62,5.9-4.11,6.06s-3.69-3.64-5.15-5.79a144.68,144.68,0,0,0-17-20.83C2866,1481.1,2856.71,1467.57,2857.28,1453.75Z" transform="translate(-436.65 262.08)"/><path class="cls-3" d="M2455.38,341.95c-3.4.31-8.69-2.43-13.64-4.6-18.42-8.07-36.46-17-54.64-25.65-3.67-1.74-3.52-3.09,0-5.28,11-6.81,21.52-14.07,30.82-23.31,8.13-8.08,17.87-14.47,30.29-13.86,8.87.43,16.54,4.52,24,8.76,14.56,8.22,29.92,14.93,44.09,23.87,1.71,1.08,3.58,2.13,4,4.16s-1.76,2.78-3.11,3.32c-11.93,4.73-20.84,13.94-31.29,20.84C2477.34,335.88,2468.71,341.52,2455.38,341.95Z" transform="translate(-436.65 262.08)"/><path class="cls-3" d="M2140,173.51c11.35,1.58,22.67,3.33,34,4.68,9.41,1.11,18.65,3.18,28,4.8,2.1.36,4.45.86,6,2.12s1.38,3.38-.35,5.11c-11.23,11.21-20.25,24.11-28.07,37.83-7.23,12.68-22,16.85-35.71,14.62-12.79-2.08-25.69-3.11-38.59-4.17-5.29-.43-10.63-.34-15.93-.68s-6.58-2.88-3.39-6.61c7.59-8.88,12.48-19.43,18.47-29.28,5-8.26,10.41-16.24,17.87-22.41A27.13,27.13,0,0,1,2140,173.51Z" transform="translate(-436.65 262.08)"/><path class="cls-3" d="M2627.48,456.83c-11.58-1.37-21.79-5.28-30.14-13.19a350,350,0,0,0-29.63-25.06c-3.49-2.63-6.91-5.36-10.37-8s-2.7-5.64,1.27-6.33c9.23-1.61,17-6.51,25.13-10.59a221.1,221.1,0,0,1,23.88-9.91,33,33,0,0,1,22-.08c5.12,1.67,8.35,6.37,12.24,9.88,13.18,11.91,26.17,24,39.21,36.08,2.38,2.2,5.93,4.52,5.24,7.74s-5,2.64-7.81,3.32a97.75,97.75,0,0,0-25,9.61C2645.34,454.89,2636.14,455.27,2627.48,456.83Z" transform="translate(-436.65 262.08)"/><path class="cls-3" d="M2640.42,1853.84c-2.07-6-2-12-3.15-17.87-1.73-8.47-4.87-16.45-7.13-24.73-3-11.18-2.94-22.08,2.26-32.65a6.39,6.39,0,0,1,1.4-2c8.68-7.51,15.51-16.81,23.9-24.62,8.68-8.09,15.3-18.11,24.11-26.09,1.29-1.17,2.23-3.16,4.5-2.45s1.51,2.77,1.7,4.26c1.37,11.16,6.63,20.92,10.43,31.26,4.6,12.51,8.54,25.9,3.46,39.69a20.46,20.46,0,0,1-6.46,8.62c-16.46,13.65-32.17,28.15-48.23,42.24C2645.27,1851.18,2642.83,1852.32,2640.42,1853.84Z" transform="translate(-436.65 262.08)"/><path class="cls-3" d="M2834,1627.22c.15,4.05-1.85,10.32-6.07,16.36-11.95,17.05-22.41,35.13-35.6,51.33-1,1.27-1.63,3-3.71,2.85-2.39-.19-2.05-2.34-2.4-3.74-2.78-11.26-9.46-20.62-14.87-30.57-6-10.94-10.13-22.41-9.25-35,.4-5.64,2.91-10.85,6.47-15.7,11.21-15.27,22.06-30.82,31.72-47.15.91-1.54,1.75-3.29,4.11-2.74,2.08.49,2.59,2.19,3.33,3.9,3.73,8.67,9.14,16.31,14.29,24.18C2828.47,1600.89,2834,1611.59,2834,1627.22Z" transform="translate(-436.65 262.08)"/><path class="cls-3" d="M2062.95,168.83l8.93-.19c10.09.71,20.19,1.31,30.27,2.17,4.73.4,5.56,2.3,2.49,6-8.78,10.57-14.46,23-21,34.87-8.35,15.28-20.32,24.34-38.83,23.24-14.92-.89-29.91-.69-44.86-1a40.91,40.91,0,0,1-5.48-.16c-2-.32-4.82.51-5.73-2s1.24-4.09,2.41-6c3.18-5.29,4-11.5,6-17.25,2.74-7.78,4.3-16,8.62-23.2a39.28,39.28,0,0,1,19.08-16.62l14.94.17Z" transform="translate(-436.65 262.08)"/><path class="cls-3" d="M1111.27,1366.77c0-6.07,1.16-7.2,5.07-5.31,8.54,4.13,17.81,4.9,26.92,6.32a92.76,92.76,0,0,1,24.72,7.17c8.13,3.73,13.77,9.37,17,17.61q10.29,26.54,20.55,53.08a21.43,21.43,0,0,1,1.33,5.26c.25,2.27-.11,3.71-3.31,3.08-12.33-2.4-24.9-1.7-37.35-1.91a77.27,77.27,0,0,1-20.86-3.24c-7.44-2.2-12-7.06-14.35-14.31-6.89-21.25-14.1-42.4-19.11-64.2C1111.48,1368.72,1111.32,1367.07,1111.27,1366.77Z" transform="translate(-436.65 262.08)"/><path class="cls-3" d="M2975.33,1240.2c-1.94,12.44-3.84,24.88-5.82,37.3-1.85,11.61-3.81,23.2-5.66,34.82-.29,1.82-.45,3.67-1.62,5.15-1,1.33-2.52,2-3.71.32-8.66-12.54-22-19.35-33.7-28.28-5.61-4.29-11.33-9.19-14.42-16.11-2.29-5.13-2.45-10.27-1.63-15.85,1.31-8.88,1.64-17.89,2.52-26.84,1.13-11.5,2.41-23,3.59-34.49.43-4.2,2.64-4.26,5.31-2.09,10.09,8.2,22.77,11.09,34,16.84C2963.42,1215.66,2976.25,1227.43,2975.33,1240.2Z" transform="translate(-436.65 262.08)"/><path class="cls-3" d="M2970.48,1005.06c-.06,1.84.21,5.05-3.95,2.79-11-6-23.65-6.91-35.16-11.31-12.45-4.76-25.91-15.41-27.4-31.6a291.09,291.09,0,0,0-6.44-38.28c-1.65-7.18-2.62-14.55-4.29-21.77-.48-2.05-.68-5.2,1.35-6.49,1.49-.95,3.58,1,5.41,1.66,7.5,2.77,15.49,3.42,23.29,4.84,10.73,2,20.87,5.55,29.22,12.65,4.88,4.15,8.54,9.66,9.24,16.35,1.92,18.27,4,36.51,7.44,54.58C2970.18,993.65,2970,999,2970.48,1005.06Z" transform="translate(-436.65 262.08)"/><path class="cls-3" d="M1615.35,1911.21c6.49-1,12.07,1.88,17.18,4.49,14.44,7.39,29.54,13.09,44.5,19.2,1.65.68,3.82.9,4.31,2.93.53,2.23-1.51,3-3,4.07-7.74,5.58-13.67,12.89-19.87,20a82.92,82.92,0,0,1-20.07,16.89c-10.19,6.09-20.13,3.76-30.1-1-12.52-5.92-25.27-11.34-37.71-17.41-6.84-3.33-13.17-7.69-20.1-10.92a4.48,4.48,0,0,1-2.42-4.11c0-2.07,1.93-2.76,3.33-3.11,12.47-3.11,22.32-10.83,32.13-18.42C1593.07,1916.52,1603.22,1911.34,1615.35,1911.21Z" transform="translate(-436.65 262.08)"/><path class="cls-3" d="M2449.45,1905.76c-2,14.94.66,30.15-1.11,45.15-1.53,12.92-6.25,23.94-19.74,29.78-19.71,8.53-39,18.11-59.15,25.58-1.64.61-4.29,2.06-4.9.88-.83-1.61-2.37-3.76-1.34-5.95,4.22-9,3.46-18.68,3.93-28.11.53-10.73.88-21.22,5.8-31.23,3.16-6.43,9.18-8.53,14.37-11.93,13-8.54,28-12.76,42.1-19.07,5.46-2.45,10.48-5.8,16.19-7.79C2448.43,1902.08,2449.75,1902.4,2449.45,1905.76Z" transform="translate(-436.65 262.08)"/><path class="cls-3" d="M1433.89,448.14c-1.13,9.4-.91,18.38-5.95,26.16-3.74,5.77-8.93,10.22-13.56,15.18q-13.08,14-26.11,28.08c-2.36,2.56-4.34,3.32-5.58-.76-4.5-14.79-14.16-27.13-19.56-41.56s-2.76-27,8.16-38c13.13-13.2,27.26-25.23,41.21-37.5.37-.33.69-.73,1.07-1,6.75-5.63,8.67-5,10.69,3.46,2.68,11.14,5.48,22.25,8.21,33.38A47.37,47.37,0,0,1,1433.89,448.14Z" transform="translate(-436.65 262.08)"/><path class="cls-3" d="M2550.17,1892.81a220.83,220.83,0,0,1-2.85-24.73c-.95-12.43,2-24,13.53-31.95a389.91,389.91,0,0,0,31.07-23.64c6.06-5.12,11.92-10.45,18.35-15.13,2.87-2.09,6-1.27,5.95,2.12,0,15.25,7.29,28.82,9.46,43.49,1.13,7.65.91,15.47-2.5,22.81a14.05,14.05,0,0,1-4.3,5.41c-7.41,5.55-14.75,11.22-22.43,16.37-12.08,8.11-24,16.44-36.61,23.77-2.3,1.34-4.89,3.89-7.08,2.93-2.52-1.1-1.5-4.72-1.43-7.27A71.14,71.14,0,0,0,2550.17,1892.81Z" transform="translate(-436.65 262.08)"/><path class="cls-3" d="M1082.52,1210.16c-2.08-4.6-1-10.26-2.12-15.77s-.95-11.11-1.16-16.62c-.28-7.09-.48-14.27-.27-21.41.14-4.77,1.35-5.76,5.25-3.46,12.3,7.23,25.82,11.78,38.55,18.08,9.41,4.66,16,12.11,22.09,20.3a13,13,0,0,1,2.45,6.42c1.7,17.68,5.25,35.09,7.45,52.7.41,3.28-.11,6.63.67,9.92.3,1.28.15,2.84-1.39,3.37a3,3,0,0,1-3.26-.59c-7-7.56-17.3-7.19-26-10.61-8.32-3.26-17.57-3.17-25.54-8.06-9.18-5.62-14.58-13.35-15.78-23.84C1083,1217.36,1081.35,1214.27,1082.52,1210.16Z" transform="translate(-436.65 262.08)"/><path class="cls-3" d="M2887.69,1540.81c-.74,2.42-1.16,5.12-2.35,7.42-4.77,9.26-9.9,18.32-14.65,27.59-5.89,11.5-13.32,22-20.28,32.85-.77,1.2-1.32,3.06-3.07,2.95-2-.13-2.52-2.22-2.91-3.67-3.6-13.42-11.85-24.32-19.31-35.61-6.54-9.9-9.46-20.61-8.12-32.3.61-5.28,3.31-10.05,5.64-14.78,7.13-14.48,14.53-28.82,20.49-43.85a16.75,16.75,0,0,1,2.52-4.18c1.39-1.74,2.93-2.23,4.23.23,5.54,10.54,14.24,18.61,21.58,27.75a113.77,113.77,0,0,1,14.85,25.12C2887.77,1533.59,2886.15,1537.3,2887.69,1540.81Z" transform="translate(-436.65 262.08)"/><path class="cls-3" d="M1446.74,1806.2c7.25-.85,12.89,3,18.14,6.76,15.8,11.46,30.88,23.89,46.86,35.13,2.22,1.56,2.51,3.89-.2,5.06-12.21,5.27-21.56,14.77-32.64,21.63-8,4.94-17,8.48-26.66,8.54a14,14,0,0,1-10.3-4.21c-6.7-7.15-15.09-12.17-22.61-18.27-3.09-2.51-6.05-5.28-9.24-7.73-6.74-5.19-12.59-11.55-18.8-17.43a14.56,14.56,0,0,1-1.39-1.43c-4.9-6.12-4.41-7.8,3.21-9,14.34-2.24,27.09-8.41,39.49-15.48C1437.06,1807.24,1442,1807,1446.74,1806.2Z" transform="translate(-436.65 262.08)"/><path class="cls-3" d="M1086,1020.56a274,274,0,0,1,4.53-36.17q3.35-17.81,6.82-35.59a23.61,23.61,0,0,1,1.68-5.67c1.23-2.56,3.26-3.45,5.33-.9,9.84,12.07,22.83,20.4,34.76,30,9.84,8,14.7,18.77,13.41,31.95-1.84,18.8-3.36,37.64-5,56.46-.14,1.65.12,3.37-1.68,4.36-2,1.08-3.89,0-5-1-8.41-8-18.83-12.52-29.07-17.46-6.8-3.28-13.55-6.86-19.33-11.83C1087.36,1030.35,1085,1024.75,1086,1020.56Z" transform="translate(-436.65 262.08)"/><path class="cls-3" d="M1889.12,245.76c-3.67.35-4.27-1.79-3.07-3.66,8.09-12.7,8.66-27.81,13.66-41.47a51.63,51.63,0,0,1,9.68-16.67,23.72,23.72,0,0,1,16-8.12c19.66-2,39.28-4.33,58.92-6.55a43.11,43.11,0,0,1,8.43.15c3.5.29,4,2.54,2.62,4.72-8.71,13.5-10.95,29.49-17.18,43.92-4.12,9.53-11,15.6-21.12,17.71a269.59,269.59,0,0,1-28.6,3.88c-11.88,1.17-23.63,3.57-35.44,5.44Z" transform="translate(-436.65 262.08)"/><path class="cls-3" d="M2154.28,2043.53c1.41-6.34,6.4-10.33,9.18-15.68,2.53-4.88,5.15-9.68,6.56-15,1.89-7.11,5.26-13.54,8.49-20s9.7-7.93,15.72-9.74c9.11-2.74,18.7-2.4,28-3.68,13.12-1.79,26.15-4.22,39.24-6.2,5.17-.78,6.45.57,4.13,5.15-4.62,9.14-5,19.13-6.93,28.83-2.35,11.64-7.27,22-17.28,29.22-6.15,4.45-13.56,3.81-20.49,5-9.59,1.71-19.37,3.7-28.92,3.9C2179.52,2045.62,2166.61,2048.1,2154.28,2043.53Z" transform="translate(-436.65 262.08)"/><path class="cls-3" d="M1173.89,1354c0,5-1.48,6.2-5.87,4.54-8.36-3.16-17.28-3.29-25.9-5-12.82-2.56-25.35-5.35-35.19-15.08-5.15-5.09-4.91-11.78-6.46-17.85-3.07-12.07-5.51-24.32-7.88-36.56-1.47-7.61-2.45-15.32-3.42-23-.44-3.46,1.91-4.67,6-2.74,10.1,4.8,20.83,7.49,31.64,10,11.62,2.7,21.79,7.92,28.79,18,5.12,7.33,7.28,15.86,9,24.48,2.44,11.85,4.9,23.69,7.21,35.57C1172.37,1349,1174.63,1351.32,1173.89,1354Z" transform="translate(-436.65 262.08)"/><path class="cls-3" d="M1712.59,2015.48c-6-1.65-12.08-3.23-18.09-5a367.54,367.54,0,0,1-46.76-16.42c-1.88-.83-4.28-2-4.24-4.07s2.23-3.18,4.12-4.38a92.5,92.5,0,0,0,22.9-20.44c8.57-10.75,18.63-18.49,33.28-18,5.43.19,10.23,2.6,15.25,4.1,16,4.78,31.91,9.83,48.07,14.06,6.26,1.64,6.91,3.33,4.18,9.14-2.15,4.57-4.84,8.55-9.11,11.48-9.57,6.56-18,14.6-26.85,22C1728.6,2013.65,1720.57,2014.24,1712.59,2015.48Z" transform="translate(-436.65 262.08)"/><path class="cls-3" d="M2903.34,1290.15a7.59,7.59,0,0,1,5.71,2.8c8.07,9,18.47,15,27.93,22.26,8.21,6.28,15.09,14,19,23.68,2.11,5.28,1.12,11.21-.32,16.63-4.84,18.25-10,36.43-15.07,54.61-.91,3.22-.8,7.59-4.71,8.68-4.33,1.22-5.13-3.58-6.85-5.92-4.93-6.68-11.2-12.2-16.92-17.95-4.17-4.2-9.86-7.48-14.38-11.85-7.1-6.87-10.57-15.41-9.6-25,.72-7.13,3.23-14.11,5.18-21.09C2897.57,1321.6,2899.29,1305.62,2903.34,1290.15Z" transform="translate(-436.65 262.08)"/><path class="cls-3" d="M1791,262.21a19.41,19.41,0,0,1,1.11-3.35c4-8,5-16.64,5.81-25.45.93-10.19,1.93-20.37,7.88-29.49a25.45,25.45,0,0,1,16.27-11.46c22.25-4.71,44.59-9.07,67.21-11.8,4-.48,4,1,2.55,3.79-6.24,11.69-9.57,24.35-12.35,37.19a52.16,52.16,0,0,1-7.41,17.29c-4.49,6.93-10.55,12.13-19.15,14-19.45,4.24-38.84,8.76-58.21,13.33C1791.6,267,1790.84,265.88,1791,262.21Z" transform="translate(-436.65 262.08)"/><path class="cls-3" d="M2178,2147.13c17.12-.42,32.68,4.8,47.64,12.36,3.42,1.73,3.81,4.73,2,7.51-10.86,17.07-23,33-40.46,44.06-4.57,2.89-9.56,3.16-14.36,2.46a210.85,210.85,0,0,1-64-19.88c-3.34-1.66-7-2.77-10.07-4.84-4-2.71-3.71-4,.77-5.64,7-2.64,13.9-5.32,20.62-8.6,9.89-4.83,18.6-11.49,27.74-17.45A62.81,62.81,0,0,1,2178,2147.13Z" transform="translate(-436.65 262.08)"/><path class="cls-3" d="M2534.89,1864.52c-.94,9.27,2.41,18,3.41,27s1.34,17.81-.42,26.74c-1.33,6.74-5.72,10.82-11.17,13.79-19.94,10.85-40,21.45-60.08,32.06-2,1.05-4.52,2.42-6.58,1.24-1.82-1-1.23-4-.8-5.55,3.59-13.06,1.18-26.37,2.11-39.52.71-10.14,1.23-20.68,9.83-28,5.67-4.81,11.54-9.43,18.46-12.53,8.83-4,16.47-10,24.89-14.68,5.06-2.81,9.42-6.76,15-8.78,4.5-1.64,5.35-1.17,5.39,3.69C2534.9,1861.52,2534.89,1863,2534.89,1864.52Z" transform="translate(-436.65 262.08)"/><path class="cls-3" d="M1295.27,532.54c-.18-6,1.78-10.67,5.76-15.35,4.8-5.64,8.22-12.46,13.74-17.67,6.3-6,10-14,16.34-20,3.45-3.27,6.15-7.27,9.57-10.64,2.94-2.9,4.63-1.69,6.06,1.05a19.9,19.9,0,0,1,1.51,5.23c3,14.62,11.33,27.09,16.49,40.85,4.24,11.31,3.84,21.8-3.1,32.13-10.24,15.22-22.22,29.08-33.43,43.54-1.43,1.85-3.18,3.62-4.62,0-5.88-14.82-15.66-27.37-23.43-41.09C1297.08,545.12,1294.29,539.12,1295.27,532.54Z" transform="translate(-436.65 262.08)"/><path class="cls-3" d="M2265.16,2034.52c-2.83.36-3.39-1-3.14-3.54.38-3.82,3-6.5,4.56-9.69,4.69-9.68,4.62-20.4,7-30.57,3-12.79,10.16-21.6,22.48-26.14,16.75-6.16,33.53-12.22,50.27-18.41,2.73-1,5.27-2.5,8-3.66,1.59-.69,3.28-.81,4.66.49s.54,2.66.11,4.12c-3.76,12.71-2.85,25.94-4.23,38.92-.88,8.31-2.69,16.2-8.17,22.91-2.4,2.93-5.43,5.39-8.71,6.26-23.48,6.22-46.47,14.3-70.37,19C2266.8,2034.33,2266,2034.41,2265.16,2034.52Z" transform="translate(-436.65 262.08)"/><path class="cls-3" d="M1174,899c-.59,10.3-3.46,18.68-5.51,27.22-2.79,11.62-5.93,23.15-8,34.93-.38,2.17-.38,5.1-3.26,5.64s-4.47-1.34-6.22-3.51c-4.67-5.79-10.92-9.7-17.14-13.68-11.52-7.37-21.1-16.54-25.65-29.95a21.06,21.06,0,0,1-.38-12.24c4.39-17.14,8.72-34.3,13.24-51.41,1.05-4,2.72-7.83,4.11-11.73s4-4.76,6.41-1.47c9.83,13.14,24.37,21.53,34.23,34.6A43.94,43.94,0,0,1,1174,899Z" transform="translate(-436.65 262.08)"/><path class="cls-3" d="M2829.41,719.27c11.12,2.74,23.19-2.35,35.46-1.39,10.63.83,20.89,2.86,29.52,9.88a12.78,12.78,0,0,1,4.11,4.83q11.7,27.64,23.36,55.29c.26.61.51,1.22.72,1.85,2.63,8.08,2.08,8.41-6.29,7.91-10.28-.61-20.63-.93-30.92-.59-10.73.35-20.06-3.41-28.84-8.68-3.61-2.16-5.73-6.27-7.61-10.29-7.79-16.59-15.8-33.07-23.74-49.59a29.06,29.06,0,0,1-1.59-3.08C2822,720.76,2823.22,719.18,2829.41,719.27Z" transform="translate(-436.65 262.08)"/><path class="cls-3" d="M1210.12,1566.93c11.25.42,22.59-1.55,33.76,1s20.85,7.28,27.29,17.75c8.14,13.23,17.12,25.94,25.85,38.8,1.55,2.29,3.22,4.66,1.94,7.25-1.14,2.32-4.08,1.91-6.3,2-14.06.68-27.87,3.15-41.69,5.62-3.81.68-7.79-.53-11.52-1.08-3-.43-6.11-.81-9.08-1.19-8.77-1.12-10.5-8.73-13.79-14.44-9.28-16.11-18.74-32.14-26.58-49-2.86-6.17-2.76-6.53,4.14-6.64C1199.46,1566.86,1204.79,1566.93,1210.12,1566.93Z" transform="translate(-436.65 262.08)"/><path class="cls-3" d="M1532.1,1933.57c-4.66.47-9.71-1-14.59-3.74-16.62-9.33-31.86-20.78-47.8-31.15-2.62-1.7-3.67-3.43.4-5.25a191.66,191.66,0,0,0,34.27-20.34c13.71-10,27.63-11.89,42.57-3q22.81,13.58,45.79,26.88c3.57,2.07,3.87,3.52.09,5.71-9.32,5.4-17.81,12-26.36,18.52C1556.7,1928.68,1545.68,1933.5,1532.1,1933.57Z" transform="translate(-436.65 262.08)"/><path class="cls-3" d="M1245.62,705.57c-.72,7.68-1.63,14.51-4.64,21-6.85,14.68-13.48,29.47-20.3,44.16-1.91,4.11-4.55,4.35-6.58.4-4.84-9.42-12.6-16.25-19.87-23.59-8.29-8.37-15.46-17.57-17.2-29.69a18.16,18.16,0,0,1,2.15-10.46c10.36-20.69,20.3-41.62,33.56-60.72,2.26-3.25,4.47-3.45,5.8.23,4.77,13.26,14.1,23.86,20.43,36.15C1242.65,690.17,1244.38,698.24,1245.62,705.57Z" transform="translate(-436.65 262.08)"/><path class="cls-3" d="M1679.47,244.58c-2.12,5.86-2.46,13.34-3.43,20.71-.82,6.24-1.27,12.56-1.52,18.85-.48,12.28-5.76,22.24-14.21,30.79-3.35,3.39-7.78,5.06-11.83,7.23-13,7-26.21,13.64-39.37,20.35-4.52,2.3-5.26,1.94-5.13-3.09.39-14.7-3.2-29-4.32-43.52-1.21-15.76,3.07-24.21,17.58-30.89,18.64-8.59,37.1-17.58,56.18-25.2C1678.58,237.74,1679.54,238.25,1679.47,244.58Z" transform="translate(-436.65 262.08)"/><path class="cls-3" d="M2782.33,635.25c14.54,2.89,28.28-2,42.21-4.6,5.93-1.11,11.58-.23,17.16,1,3.9.87,6.36,4.26,8.2,7.81,4.3,8.35,8.63,16.86,13.46,24.72,7.14,11.63,12.89,23.88,19.31,35.81,2.62,4.86,2,5.51-3.57,5.52-4,0-7.59-1.66-11.58-1.9-10.18-.62-20.08,1.26-30.1,2.11-10.87.92-28.68-4.77-33.8-18.25-3.14-8.27-9.13-15.43-13.45-23.31-4.79-8.73-9.81-17.29-15.37-25.55-1.25-1.85-.85-3.54,2-3.39C2778.66,635.33,2780.5,635.25,2782.33,635.25Z" transform="translate(-436.65 262.08)"/><path class="cls-3" d="M1436.9,390.21c-2.3-10.94,6.48-16.29,14.05-22.1,11-8.41,22.16-16.53,33.39-24.6a121.72,121.72,0,0,1,12.68-7.82c2.86-1.56,5.29-1.06,5.44,2.91.51,13.32,4.5,26.16,5.63,39.36,1.52,17.73-2.9,33.33-18.34,44.26-11.68,8.27-22.16,18-33,27.29-.88.75-1.76,1.53-2.68,2.23-3.14,2.37-4.86,1.34-5.1-2.35a150.33,150.33,0,0,0-10.09-45C1437.23,400.21,1436.75,395.72,1436.9,390.21Z" transform="translate(-436.65 262.08)"/><path class="cls-3" d="M1589.5,330.44a40.49,40.49,0,0,1-1.55,14.31c-2.16,6.79-5.29,12.65-11.55,16.79-16.3,10.78-32.36,21.92-48.58,32.82-3.54,2.38-5.11,1.5-5-2.91.35-9.7.48-19.69-2.95-28.59s-2.79-17.56-2.9-26.41c-.12-9.59,4.5-16.69,12.54-21.71,15.05-9.4,30-19,45.55-27.55.73-.4,1.42-.86,2.16-1.24,6.54-3.28,8.07-2.45,8.54,4.84C1586.65,304,1589.56,317.11,1589.5,330.44Z" transform="translate(-436.65 262.08)"/><path class="cls-3" d="M2954.8,893.54c.08,6.66-.28,6.84-5.59,4.67-11.84-4.83-24.4-6.55-36.87-8.87-12.7-2.36-23.75-7.89-28.15-21.32-6.13-18.72-12.22-37.44-20.8-55.24-1.39-2.89-.63-5.08,3.22-4.27,16,3.38,32.43,2.08,48.56,3.91,8.63,1,16.65,3.88,20.1,13.62,7.38,20.78,12.77,42.14,18.95,63.27A21.29,21.29,0,0,1,2954.8,893.54Z" transform="translate(-436.65 262.08)"/><path class="cls-3" d="M2980,1094.45c0,2.33-.16,4.67,0,7,.36,4.3-1.78,5.37-5,3.31-13.44-8.69-29.52-11.21-43.4-18.8a27.94,27.94,0,0,1-14.19-17.32c-2.37-8-1.55-16.26-3.23-24.25-2.28-10.82-1.46-22-4.26-32.8a5.31,5.31,0,0,1,0-1.48c.35-8.4.4-8.42,7.7-4.07,9.34,5.58,19.6,8.79,30.17,10.75,16.51,3.06,26.92,12.83,28.33,30.64C2977.44,1063.08,2979.57,1078.7,2980,1094.45Z" transform="translate(-436.65 262.08)"/><path class="cls-3" d="M1751.47,2227.81c1.34,14.08-6.2,26.18-17.63,36.53-3,2.68-5.78,5.5-8.64,8.27-2.66,2.58-4.82,3.17-7.88-.07-8.58-9.08-17.23-18.16-26.56-26.44-3.81-3.37-6.6-7.6-10.64-10.66-3.6-2.72-3.58-5.79-.25-8.73,8.78-7.77,15.59-17.63,25.85-23.88,4.16-2.53,7-6.83,10.23-10.41,5.9-6.54,13.6-11.08,19-18a10.87,10.87,0,0,1,3.94-2.87c2.8-1.39,3.9-.42,4.53,2.25C1747.45,2190.88,1751.26,2208,1751.47,2227.81Z" transform="translate(-436.65 262.08)"/><path class="cls-3" d="M2256.86,1914c21,.18,33.8,10.93,45.55,23.52,1.35,1.45,2.69,2.93,4,4.45,3.89,4.7,3.25,7-2.61,8.89-10.72,3.4-21.55,6.46-32.19,10.07-8.4,2.85-17.14,3.76-25.73,5.55-4.27.89-7-1.64-10.17-3.44-10.16-5.69-21.1-6.42-32.36-4.68-1.15.18-2.27.49-3.41.73-1.58.33-3.3,1.22-4.58-.45s.29-3.16,1-4.44a93.61,93.61,0,0,1,25-27.67C2232.22,1918.49,2244.65,1912,2256.86,1914Z" transform="translate(-436.65 262.08)"/><path class="cls-3" d="M1965.8,2152.66c19.25,2.26,39.28,5.65,58.5,12.73,2.46.91,6.51.45,6.91,3.68.48,3.88-4,3.29-6.23,4.36-21.76,10.49-44.43,18.8-67,27.4-8.64,3.29-17.1,7.18-26.34,8.63-1.73.27-3.93,1.36-5.1-.34s.09-3.51,1-5.12c5.76-10,8.59-21,11.83-31.92,2.3-7.78,4.8-16.2,14.46-18.33C1957.41,2153,1961.12,2153.05,1965.8,2152.66Z" transform="translate(-436.65 262.08)"/><path class="cls-3" d="M2147.93,2127c-5.17-.83-9.47-4.51-14.16-7.17-14.11-8-27.62-17.17-43.63-21.22-1.33-.34-2.13-.91-2.14-2.25a3.72,3.72,0,0,1,2.63-3.33c5.3-2.22,10.61-4.48,16.06-6.26a211.73,211.73,0,0,1,74.91-10.51c7.44.31,14.87,1.05,22.3,1.69,1,.09,2.6-.26,2.69,1.45.07,1.27-1.26,1.41-2.08,1.83-7.35,3.78-14.86,7.28-21.67,12-8.42,5.87-14.1,14.42-21.15,21.63q-5.05,5.16-9.76,10.65C2150.88,2126.79,2149.71,2126.83,2147.93,2127Z" transform="translate(-436.65 262.08)"/><path class="cls-3" d="M1877,2139.78c-4.46-.22-8.85-2.73-13.08-5-5.68-3-10.84-7-16.07-10.78a8.91,8.91,0,0,1-2.77-4c-2.09-5.49-6.63-9.5-8.73-15-1.6-4.19.54-6.64,3.77-8,20.48-8.74,41.36-16.07,63.85-17.57a3.69,3.69,0,0,1,3.42,1.45c1,1.15.3,2.29-.46,3.15-12.07,13.71-16.52,30.59-20.09,47.88C1885.61,2137.66,1882.83,2139.78,1877,2139.78Z" transform="translate(-436.65 262.08)"/><path class="cls-3" d="M2118.38,2043.87c-8.94-2.44-18.37-2.72-27.11-6-3.37-1.28-7.19-.7-10.4-2.69-1-.62-2-.79-2-2.33s1.09-1.7,2.1-2.26c17.51-9.54,35.28-18.56,53.07-27.57,7.93-4,15.53-8.67,23.69-12.25a27.77,27.77,0,0,1,4.16-1.62c2.81-.72,3.89.61,2.85,3.17-4.62,11.32-7.24,23.58-14,33.87-6.12,9.35-14.29,16.55-26.58,16.7A35.74,35.74,0,0,0,2118.38,2043.87Z" transform="translate(-436.65 262.08)"/><path class="cls-3" d="M2337.8,2051c.79,13.72-2.85,26.15-4.14,38.84-.18,1.81-1,3.3-2.87,3.66s-2.34-1.07-3.13-2.46c-4.38-7.63-10.34-14-16.63-20.05-5.87-5.67-13.35-9.5-18.3-16.23-2.5-3.39-5.46-6.44-7.88-9.88s-.78-7,3.49-8q19.57-4.58,39.15-9.11c5.25-1.21,7.26.07,8.71,5.27C2337.93,2039.21,2338,2045.52,2337.8,2051Z" transform="translate(-436.65 262.08)"/><path class="cls-3" d="M1764.21,2227.8a204.86,204.86,0,0,0-8.76-48.38c-2.25-7.17-1.15-14,1-20.86.48-1.55,1-3.23,3.18-3.32,1.92-.08,3,.87,4,2.41,6.55,10.39,14.63,19.63,22.33,29.13a96.71,96.71,0,0,0,9.08,9.09c2.22,2.09,2.26,4.11.66,6.62a49.49,49.49,0,0,1-7.23,8.2q-9.53,9.53-19.11,19c-1.19,1.17-2.64,2.43-4.37,1.9C1762.75,2230.94,1764.82,2229,1764.21,2227.8Z" transform="translate(-436.65 262.08)"/><path class="cls-3" d="M2394.82,2291.22c0-4.71,2.52-7.1,4.72-9.3,9.65-9.64,19.54-19,29.36-28.49,1.89-1.82,4.51-2.68,6.27-4.76.51-.6,1.81-.71,2.76-.74,2.41-.08,13.59,7.58,14.47,9.82a3.51,3.51,0,0,1-.92,4c-8,8.85-16.24,17.42-24.94,25.6-5.65,5.31-10.77,11.21-16,16.94a10.64,10.64,0,0,1-5.5,3.12,2.43,2.43,0,0,1-3-1.07C2399.19,2301.16,2396.39,2296,2394.82,2291.22Z" transform="translate(-436.65 262.08)"/><path class="cls-3" d="M2006.11,1952.84c10.22,1.68,19.78,1.39,28.67,5.12,1.24.52,2.79.71,2.86,2.3a3.25,3.25,0,0,1-2.36,3c-23.22,8.47-45.68,19.63-71.12,20.25-1.37,0-3.3,1.19-3.91-.82s.92-2.82,2.5-4c7.65-5.94,14.66-12.78,22.58-18.31A42.56,42.56,0,0,1,2006.11,1952.84Z" transform="translate(-436.65 262.08)"/><path class="cls-3" d="M2242.61,2169.79a5.85,5.85,0,0,1,4.19,1.16c5.89,4,11.88,7.91,17.73,12,3.23,2.26,3.34,5.71.33,7.64-12.87,8.25-26.32,15.34-41.12,19.51-4,1.12-8.07,1.9-12.13,2.72-1.3.26-2.89,1.32-3.9-.45s-.1-3.38.93-4.54a94.3,94.3,0,0,1,8.42-8.47c8.69-7.52,14.19-17.47,20.45-26.8C2239,2170.32,2240.3,2169.61,2242.61,2169.79Z" transform="translate(-436.65 262.08)"/><path class="cls-3" d="M2322.65,2111.25c-.09,1.18.27,2.31-1.14,3.05-1.64.86-2-.81-2.82-1.33-13.55-8.17-27-16.5-41.42-23.15-3.26-1.5-2.82-4.85-2.46-7.42.85-6.15,2.24-12.24,3.52-18.33.58-2.75,2.15-4.73,4.72-2,10.79,11.41,24.8,19.57,33.4,33.19A43.17,43.17,0,0,1,2322.65,2111.25Z" transform="translate(-436.65 262.08)"/><path class="cls-3" d="M2386.5,2226.44a8.57,8.57,0,0,1-2.82,5.07c-5.28,5-10.55,10.11-15.66,15.32-6.18,6.3-8.22,5.37-13.58.76-6.31-5.43-11.9-11.69-17.8-17.6a5,5,0,0,1-1.47-5c.6-2.15,2.55-1.63,4.16-1.79,13.88-1.36,27.75-2.25,41.66-.35C2384.34,2223.32,2386.53,2224.59,2386.5,2226.44Z" transform="translate(-436.65 262.08)"/><path class="cls-3" d="M2368.86,2264.15c-.9-1.45-3.61-1.33-2.06-4.13a15.47,15.47,0,0,1,2.86-3.38q17.46-17.53,35-35a9.22,9.22,0,0,1,2.16-2.05c1.64-.77,3.36-2.77,5.25-.62s-.45,3.27-1.59,4.41q-18.49,18.62-37.1,37.11C2372.08,2261.76,2370.57,2262.77,2368.86,2264.15Z" transform="translate(-436.65 262.08)"/><path class="cls-3" d="M2387.14,2281.82c-2.82-.83-1.84-3-1-4.3a28.46,28.46,0,0,1,4.35-4.72q17.25-17.28,34.52-34.54c.7-.7,1.33-1.66,2.19-2s2.3-.77,3.23.29a2.53,2.53,0,0,1,.28,3.21,13.65,13.65,0,0,1-1.88,2.29q-18.49,18.51-37,37A10.78,10.78,0,0,1,2387.14,2281.82Z" transform="translate(-436.65 262.08)"/><path class="cls-3" d="M1704.76,2290.62a2.44,2.44,0,0,1-.93,2.69c-1.17.92-2.12.31-3.09-.47-2.68-2.15-5.67-3.9-7.94-6.58-9.43-11.15-21.61-19.49-31.14-30.53-1.2-1.39-3.78-2.58-1.74-4.85,2.26-2.52,4,.07,5.36,1.34,12.62,12,25.12,24.12,37.64,36.22A23.73,23.73,0,0,1,1704.76,2290.62Z" transform="translate(-436.65 262.08)"/><path class="cls-3" d="M1670.36,2241c2.18-.36,2.93.88,3.87,1.78,12.55,11.88,25.13,23.72,37.6,35.69,1.26,1.21,4.48,2.45,1.8,5-2.32,2.22-4.32.43-5.92-1.33-12-13.16-26.1-24.11-38-37.32-.67-.74-2.48-1.13-1.35-2.63A5.24,5.24,0,0,1,1670.36,2241Z" transform="translate(-436.65 262.08)"/><path class="cls-3" d="M1652.64,2259.33a27.78,27.78,0,0,1,3.17,2.35q19.16,18.2,38.22,36.52c1,1,2.78,2.16.89,4.11s-2.7.85-4.35-.47c-9.5-7.59-17.17-17.07-26.21-25.08-4.7-4.17-9.36-8.33-13.7-12.86-.77-.8-2-1.93-.8-3.2C1650.45,2260.09,1650.78,2258.76,1652.64,2259.33Z" transform="translate(-436.65 262.08)"/><path class="cls-3" d="M2378.72,2272.87c-1.88-.75-3.49-1.5-2.21-3.63a16.82,16.82,0,0,1,2.73-2.89l37.34-37.34c1.22-1.22,2.3-3.37,4.38-1.45,2.3,2.12.17,3.5-1.19,4.86q-19,19-38,38A34,34,0,0,1,2378.72,2272.87Z" transform="translate(-436.65 262.08)"/><path class="cls-3" d="M1753.93,2015.24c-.37,6.42-4.19,11-9.21,12a6.36,6.36,0,0,1-7.07-3.07c-1.29-2.57,1.52-4.07,3.66-5.44,2.84-1.83,5.36-4.14,8.2-6C1752.78,2010.7,1754.45,2011.62,1753.93,2015.24Z" transform="translate(-436.65 262.08)"/><path class="cls-2" d="M2611.87,950.74c-2.87,20-5.52,39.24-8.48,58.44-.53,3.42.36,4.89,3.32,6.49,16.37,8.81,32.6,17.88,48.88,26.86a2.68,2.68,0,0,1,1.74,2.1c-15.76,2.77-31.53,5.46-47.26,8.36-4.69.86-10.79-.14-13.65,3.27-2.63,3.14-2.34,8.77-3.23,13.32-3.06,15.63-6.08,31.27-9.35,48.14-2.8-5-5.09-9-7.21-13-7.07-13.36-14.14-26.73-21.06-40.17-1.22-2.37-2.58-2.78-5.11-2.45-17,2.21-34,4.22-50.94,6.29-2.42.29-4.84.56-7.25.84-.35-2.13,1.08-2.76,1.94-3.64,12.63-13,25.22-26.09,38-39,2.31-2.33,2.32-3.94,1-6.78-8.06-16.76-15.86-33.64-23.74-50.49a23,23,0,0,1-.77-2.18c1.53-1,2.45.1,3.4.56,16.13,7.86,32.31,15.64,48.32,23.75,3.63,1.84,5.75,1.68,8.8-1.28,13.13-12.72,26.6-25.09,40-37.57A30.46,30.46,0,0,1,2611.87,950.74Z" transform="translate(-436.65 262.08)"/><path class="cls-2" d="M1550.38,967.58c-2.85,6.28-5.65,12.58-8.56,18.83-5.25,11.29-10.45,22.61-15.93,33.79-1.36,2.78-.9,4.33,1.16,6.41,12.29,12.43,24.43,25,36.63,37.52a13.47,13.47,0,0,1,3.52,5.1c-10.24-1.21-19.87-2.32-29.49-3.5s-19.13-2.29-28.67-3.68c-3-.44-4.37.68-5.71,3.24-8.52,16.34-17.21,32.59-25.85,48.87-.45.84-1,1.62-2.19,3.45-2.3-12-4.39-22.91-6.51-33.85-1.58-8.16-3.35-16.28-4.72-24.47-.5-3-1.66-4.08-4.67-4.58-18.51-3.11-37-6.48-55.46-9.76-.58-.1-1.15-.23-2.46-.48,5.26-4.48,11-6.64,16.24-9.66,11.06-6.41,22.23-12.67,33.59-18.55,4-2,5-4.26,4.28-8.54-2.73-17.23-5.11-34.52-7.58-51.8a32.9,32.9,0,0,1,0-4.24c4.68,2.28,7.51,6.34,11,9.49,10.74,9.68,21.25,19.64,31.69,29.64,2.35,2.25,4.11,2.73,7.2,1.18,17.07-8.55,34.29-16.82,51.45-25.19Z" transform="translate(-436.65 262.08)"/><path class="cls-2" d="M2025.53,1361.25c-33.82,0-67.64.21-101.45-.06-36.24-.28-72.44-1.43-108.35-7a84.78,84.78,0,0,1-17.33-4.49c-2.87-1.1-6-2.65-6.19-5.81s2.85-5,5.67-6.25c9.42-4,19.46-5.56,29.51-6.8a632.58,632.58,0,0,1,68.61-4.33c82.77-1.22,165.55-.56,248.33-.46,29.9,0,59.84.56,89.57,4.48,9.86,1.3,19.81,2.44,28.88,7,2.53,1.28,5.52,2.48,5.38,5.84-.15,3.53-3.14,4.62-6.08,5.67-15.52,5.53-31.78,6.61-48,8.15-61.6,5.87-123.37,3.54-185.09,4Z" transform="translate(-436.65 262.08)"/></svg>