<svg id="Capa_1" data-name="Capa 1" xmlns="http://www.w3.org/2000/svg" viewBox="0 0 125.36 125.22"><defs><style>.cls-1{fill:#fdfdfd;}.cls-2{fill:#676767;}</style></defs><title>user</title><path class="cls-1" d="M2577,2898.29c-.62-.35-1.74.71-2-.5a19.76,19.76,0,0,1,0-3.49q0-58.42-.07-116.85c0-3.07.13-4.3,3.9-4.28q58.67.29,117.34.05c2.92,0,3.94.4,3.92,3.73-.15,39.28-.08,78.56-.17,117.84,0,1.22,1.61,4-1.93,3.49-.15-3.16-.54-6.33-.4-9.48.32-7.33-3.47-11.23-10-13.62-8.11-3-15.95-6.69-24.09-9.58-5.6-2-7.79-7.22-11.67-10.81a3,3,0,0,1,.12-4.16c2.89-2.48,2.85-5.81,3.28-9.1.17-1.27.52-3.23,1.34-3.58,5.54-2.4,5.76-7.81,5.06-11.85-1-5.56-.34-10.89-.2-16.29.5-19.65-20.37-27.29-33.54-20.77-2.06,1-3.68,3-5.79,3.8-5.11,1.85-7.09,5.67-7.74,10.61-1.1,8.39,1.63,16.59.59,25.16-.85,7,6.28,12.52,6.88,19.79,0,.28.34.57.57.81,2.59,2.69,4.72,5.21-.77,7.19-1,.35-1.62,2.06-2.11,3.26-1.3,3.18-3.62,4.83-6.86,6-8.32,2.88-16.5,6.17-24.77,9.21-6.35,2.33-9.57,6.81-9.93,13.54C2577.78,2891.69,2577.33,2895,2577,2898.29Z" transform="translate(-2574.93 -2773.17)"/><path class="cls-2" d="M2577,2898.29c.33-3.31.78-6.6,1-9.92.36-6.73,3.58-11.21,9.93-13.54,8.27-3,16.45-6.33,24.77-9.21,3.24-1.12,5.56-2.77,6.86-6,.49-1.21,1.13-2.91,2.11-3.26,5.49-2,3.36-4.5.77-7.19-.23-.24-.54-.52-.57-.81-.6-7.27-7.73-12.77-6.88-19.79,1-8.56-1.7-16.77-.59-25.16.65-4.95,2.64-8.76,7.74-10.61,2.11-.77,3.74-2.78,5.79-3.8,13.17-6.53,34,1.11,33.54,20.77-.14,5.4-.75,10.73.2,16.29.69,4,.48,9.46-5.06,11.85-.82.36-1.18,2.31-1.34,3.58-.43,3.29-.39,6.62-3.28,9.1a3,3,0,0,0-.12,4.16c3.88,3.59,6.07,8.83,11.67,10.81,8.14,2.89,16,6.62,24.09,9.58,6.54,2.39,10.34,6.29,10,13.62-.14,3.15.25,6.32.4,9.48Z" transform="translate(-2574.93 -2773.17)"/></svg>