<?xml version="1.0" encoding="utf-8"?>
<!-- Generator: Adobe Illustrator 26.0.0, SVG Export Plug-In . SVG Version: 6.00 Build 0)  -->
<svg version="1.1" id="Layer_1" xmlns="http://www.w3.org/2000/svg" xmlns:xlink="http://www.w3.org/1999/xlink" x="0px" y="0px"
	 viewBox="0 0 562.66 201.06" style="enable-background:new 0 0 562.66 201.06;" xml:space="preserve">
<style type="text/css">
	.st0{fill:#632E91;}
	.st1{fill:#643193;}
	.st2{fill:#FFFFFF;}
	.st3{fill:#FDFEFD;}
	.st4{fill:#FDFEFB;}
	.st5{fill:#FCFCFB;}
	.st6{fill:#633092;}
	.st7{fill:#633192;}
</style>
<text transform="matrix(0 -1 1 0 -1547.0133 444.8267)" class="st2" style="font-family:'MyriadPro-Regular'; font-size:70px;">MÉXICO</text>
<path class="st0" d="M152.5,58.82c0,0,3.56-15.33,20.45-32.68c0,0-17.35-17.04-46.62-15.64c0,0-67.07,4.34-66.91,67.53
	c0,0,0.46,38.57,30.2,55.76c0,0,41.36,32.06,85.81-6.04c0,0-19.52-18.12-21.84-30.98c0,0-26.02,30.67-52.82-0.62
	c0,0-20.91-33.92,19.98-48.48C120.75,47.67,140.89,43.8,152.5,58.82z"/>
<path class="st0" d="M182.24,147.27h40.12V49.84c0,0,8.05-15.8,19.21,0l-0.62,97.43l40.43-0.86V44.26c0,0-4.8-38.41-49.57-38.88
	c0,0-40.12,1.39-48.79,37.17L182.24,147.27z"/>
<path class="st0" d="M270.68,8.33c0,0,20.6,11.62,22.3,37.33l0.77,101.61h37.17V94.14l18.74-0.15v53.28h37.33V8.33H350.3
	l-0.46,50.34h-20.99V8.33H270.68z"/>
<g>
	<path class="st1" d="M550.49,78.86c-0.11,41.08-33.26,74.23-74.03,74.23c-41.05,0-74.73-33.59-74.13-75.25
		c0.58-40.29,33.54-73.35,74.76-72.99C517.4,5.19,550.32,37.84,550.49,78.86z"/>
	<path class="st2" d="M446.12,93.51c-1.66-0.06-3.1-0.54-4.47-1.17c-5.73-2.68-8.95-8.11-8.64-14.43c0.28-5.7,4.63-11.27,10.09-12.9
		c6.74-2.01,13.26,0.27,17.62,6.1c3.53,4.72,5.27,10.11,6.08,15.86c0.16,1.12,0.26,2.25,0.33,3.38c0.03,0.5,0.19,0.68,0.7,0.66
		c0.71-0.04,1.43-0.05,2.15,0c0.57,0.04,0.7-0.16,0.68-0.71c-0.11-3.36-0.7-6.64-1.61-9.87c-1.24-4.45-3.3-8.57-5.16-12.77
		c-1.62-3.66-2.86-7.41-2.76-11.47c0.12-4.58,1.82-8.65,4.17-12.5c2.88-4.7,6.62-8.66,10.59-12.43c0.32-0.3,0.54-0.46,0.94-0.06
		c4.58,4.39,8.86,9.02,11.89,14.67c3.51,6.53,3.79,13.17,0.91,19.99c-1.48,3.52-3.19,6.94-4.57,10.51
		c-1.65,4.29-2.65,8.73-2.97,13.31c-0.09,1.31-0.08,1.32,1.23,1.31c0.71-0.01,1.58,0.2,2.1-0.12c0.54-0.34,0.2-1.27,0.27-1.94
		c0.6-5.77,2.02-11.28,5.21-16.21c2.44-3.77,5.61-6.6,10.02-7.93c5.92-1.79,13.02,0.76,16.36,5.99c3.17,4.97,3.4,10.14,0.62,15.29
		c-2.19,4.06-5.76,6.44-10.28,7.36c-0.25,0.05-0.63,0.11-0.77-0.02c-0.25-0.24,0.06-0.54,0.16-0.8c1.09-2.94,1.14-5.82-0.81-8.43
		c-2.09-2.81-6.19-3.77-9.45-2.36c-3.82,1.65-5.74,4.76-6.72,8.62c-0.12,0.48,0.06,0.57,0.48,0.57c0.98-0.02,1.97-0.01,2.96-0.01
		c0.18,0,0.36-0.01,0.54,0c0.7,0.07,1.15,0.98,1.13,2.25c-0.02,1.18-0.48,1.97-1.18,2.01c-0.39,0.02-0.78,0.01-1.16,0.01
		c-11.19,0-22.39-0.01-33.58,0.02c-0.82,0-1.2-0.31-1.44-1.01c-0.19-0.55-0.24-1.1-0.14-1.67c0.22-1.32,0.54-1.61,1.84-1.61
		c0.93,0,1.85,0,2.78,0c0.3,0,0.55-0.04,0.47-0.44c-0.74-3.71-3.41-8.3-8.33-9.19c-6.01-1.08-10.46,3.6-9.16,9.57
		C445.43,91.8,445.73,92.6,446.12,93.51z"/>
	<path class="st3" d="M477.44,136.73c2.26-0.97,4.05-2.91,6.81-2.74c6.8,0.43,12.83-2.08,18.63-5.19
		c9.94-5.32,17.67-12.92,23.09-22.81c4.89-8.92,7.15-18.49,6.82-28.65c-0.49-15.14-6.16-28.06-16.91-38.71
		c-7.3-7.25-15.97-12.17-25.99-14.53c-15.23-3.59-29.67-1.48-43.04,6.72c-11.73,7.2-19.79,17.45-24.14,30.52
		c-2.69,8.1-3.44,16.43-2.32,24.92c1.29,9.83,4.86,18.73,10.86,26.62c6.87,9.05,15.64,15.56,26.38,19.36
		c0.56,0.2,1.12,0.42,1.69,0.57c0.56,0.15,0.63,0.39,0.36,0.89c-0.29,0.52-0.52,1.08-0.59,1.68c-0.07,0.59-0.33,0.61-0.84,0.45
		c-7.54-2.42-14.33-6.18-20.36-11.31c-7.31-6.22-12.87-13.72-16.58-22.58c-2.32-5.55-3.71-11.32-4.3-17.3
		c-0.67-6.79-0.15-13.48,1.46-20.08c1.76-7.2,4.8-13.85,9.09-19.91c5.2-7.35,11.7-13.28,19.53-17.71
		c7.13-4.03,14.77-6.48,22.93-7.32c13.49-1.38,26.1,1.34,37.61,8.5c12.22,7.59,20.71,18.27,25.33,31.95
		c2.72,8.07,3.62,16.36,2.78,24.81c-1.07,10.68-4.7,20.44-11.07,29.1c-7.77,10.56-17.88,17.95-30.4,21.92
		c-2.74,0.87-5.61,1.14-8.48,1.24c-2.63,0.09-5.25,0.03-7.88-0.13C477.79,136.99,477.62,137.04,477.44,136.73z"/>
	<path class="st2" d="M476.28,114.89c0.88-3.12,1.13-6.26,1.34-9.41c0.15-2.2,0.23-4.41,0.31-6.61c0.02-0.48,0.18-0.61,0.63-0.6
		c0.98,0.03,1.97,0.04,2.95-0.01c0.61-0.03,0.82,0.19,0.89,0.78c0.34,3.04,1.02,5.99,2.19,8.82c0.89,2.17,2.08,4.15,3.48,6.02
		c0.25,0.34,0.33,0.56,0,0.9c-3.27,3.43-6.86,6.44-11.05,8.7c-0.51,0.27-0.88,0.19-1.33-0.05c-4.13-2.24-7.69-5.2-10.9-8.61
		c-0.34-0.36-0.32-0.62-0.03-1c3.37-4.38,5.05-9.42,5.64-14.86c0.06-0.59,0.27-0.74,0.83-0.72c0.95,0.04,1.91,0.04,2.86,0
		c0.58-0.02,0.78,0.17,0.78,0.76c0.06,3.91,0.33,7.81,0.77,11.69C475.8,112.11,476.06,113.5,476.28,114.89z"/>
	<path class="st2" d="M488.4,98.27c1.29-0.43,1.93,0.32,2.54,1.7c1.81,4.11,6.18,5.47,10.09,3.26c0.71-0.4,0.87-0.25,1.02,0.46
		c0.73,3.48-1.85,6.81-5.5,7.16c-3.5,0.34-5.97-1.28-7.8-4.06c-1.6-2.4-2.34-5.13-2.78-7.96c-0.07-0.45,0.05-0.6,0.49-0.58
		C487.01,98.29,487.58,98.27,488.4,98.27z"/>
	<path class="st2" d="M456.89,110.89c-3.26-0.01-5.81-2.1-6.23-5.35c-0.03-0.21-0.04-0.42-0.04-0.62c0.01-0.6-0.06-1.33,0.32-1.73
		c0.55-0.58,1.02,0.24,1.49,0.43c3.99,1.64,7.82,0.14,9.56-3.95c0.47-1.1,0.99-1.61,2.2-1.42c0.7,0.11,1.43,0.03,2.14,0.02
		c0.45-0.01,0.57,0.19,0.5,0.6c-0.57,3.26-1.42,6.42-3.61,9.03C461.66,109.75,459.73,110.94,456.89,110.89z"/>
	<path class="st3" d="M474.46,130.78c-1.64,0.9-3.27,1.35-5.03,1.45c-3.31,0.19-5.76,2.67-5.78,5.79c-0.03,3.19,2.39,5.75,5.6,5.95
		c2.05,0.12,3.97,0.69,5.06,1.49c-3.17,2.45-7.66,2.14-10.66-0.52c-3.83-3.39-4.21-8.66-1-12.69
		C465.39,128.83,470.63,128.13,474.46,130.78z"/>
	<path class="st4" d="M467.78,139.02c4.02-0.03,7.7,1.13,11.06,3.27c1.87,1.19,3.82,1.86,6.07,1.71c1.36-0.09,2.74-0.04,4.1,0.18
		c0.19,0.03,0.47-0.09,0.54,0.17c0.07,0.24-0.18,0.35-0.32,0.49c-2.27,2.22-6.18,2.95-9.07,1.6c-1.89-0.88-3.7-1.93-5.56-2.86
		c-1.64-0.82-3.39-1.27-5.23-1.37c-1.69-0.09-2.91-0.92-3.64-2.48c-0.22-0.47-0.17-0.73,0.43-0.71
		C466.7,139.03,467.24,139.02,467.78,139.02z"/>
	<path class="st4" d="M485.56,132.27c-3.12-0.69-5.71,1.14-8.43,2.64c-3.41,1.88-7.1,2.52-10.97,2.31
		c-0.62-0.03-0.62-0.29-0.42-0.73c0.67-1.46,1.85-2.36,3.4-2.42c2.75-0.12,5.15-1.12,7.49-2.43c0.96-0.54,1.93-1.06,2.92-1.56
		c3.19-1.62,7.02-1.1,9.66,1.3c0.15,0.14,0.41,0.25,0.35,0.47c-0.08,0.29-0.4,0.21-0.61,0.23
		C487.9,132.15,486.86,132.19,485.56,132.27z"/>
	<path class="st5" d="M477.52,139.51c2.27-0.41,4.57-0.43,6.86-0.42c5.16,0.01,10.14,0.92,14.86,3.06c0.47,0.21,1.21,0.21,1.15,1.02
		c-0.07,0.9-0.44,1.68-1.18,2.22c-0.34,0.24-0.69-0.07-1-0.2c-2.79-1.14-5.6-2.21-8.6-2.68c-1.75-0.28-3.5-0.32-5.26-0.26
		c-1.39,0.04-2.65-0.25-3.83-1C479.55,140.62,478.53,140.08,477.52,139.51z"/>
	<path class="st5" d="M458.55,140.33c0.43-0.1,0.49,0.15,0.53,0.39c0.13,0.71,0.38,1.38,0.71,2.01c0.2,0.38,0.05,0.53-0.3,0.64
		c-1.86,0.62-3.73,1.23-5.51,2.05c-0.35,0.16-0.63,0.04-0.87-0.24c-0.28-0.32-0.48-0.67-0.64-1.07c-0.46-1.14-0.36-1.43,0.8-1.88
		c1.55-0.6,3.12-1.16,4.69-1.73C458.16,140.42,458.4,140.37,458.55,140.33z"/>
	<path class="st6" d="M476.43,44.2c0.61,2.83,0.81,5.53,0.99,8.24c0.83,12.25,0.62,24.53,0.65,36.8c0,1.77-0.02,1.77-1.83,1.77
		c-1.54,0-1.53,0-1.54-1.56c-0.03-8.15-0.06-16.3,0.1-24.45c0.11-5.91,0.33-11.82,1.02-17.69C475.95,46.31,476.02,45.3,476.43,44.2z
		"/>
	<path class="st7" d="M450.53,77.39c-1.13-0.18-2.24-0.34-3.34-0.55c-0.55-0.11-0.87,0.02-1.12,0.55c-0.48,1.02-1.02,2.01-1.62,3.17
		c-0.39-1.24-0.5-2.35-0.63-3.44c-0.08-0.68-0.38-0.88-1-0.96c-1.09-0.13-2.16-0.34-3.41-0.54c0.96-0.76,1.98-1.14,2.93-1.6
		c0.67-0.33,0.93-0.63,0.74-1.41c-0.25-1.03-0.34-2.1-0.51-3.31c0.85,0.6,1.4,1.29,2.02,1.9c1.13,1.11,1.12,1.12,2.5,0.4
		c0.53-0.27,1.05-0.55,1.59-0.82c0.18-0.09,0.4-0.2,0.57-0.01c0.15,0.17-0.04,0.33-0.11,0.48c-0.39,0.83-0.77,1.67-1.21,2.48
		c-0.21,0.39-0.18,0.62,0.14,0.91c0.66,0.6,1.29,1.24,1.91,1.88C450.19,76.75,450.53,76.9,450.53,77.39z"/>
	<path class="st7" d="M513.19,75.65c-1.04,0.17-2.08,0.39-3.13,0.5c-0.74,0.08-1.08,0.35-1.13,1.14c-0.08,1.06-0.31,2.11-0.52,3.43
		c-0.64-1.24-1.21-2.23-1.66-3.26c-0.28-0.64-0.65-0.72-1.25-0.6c-1.07,0.21-2.15,0.36-3.22,0.53c-0.05-0.08-0.11-0.17-0.16-0.25
		c0.83-0.79,1.63-1.61,2.49-2.36c0.43-0.37,0.45-0.68,0.19-1.15c-0.56-1.01-1.07-2.05-1.49-3.22c1.07,0.54,2.15,1.03,3.19,1.62
		c0.47,0.27,0.72,0.2,1.06-0.17c0.8-0.87,1.64-1.7,2.63-2.46c-0.17,1.15-0.32,2.31-0.52,3.46c-0.09,0.52,0.03,0.8,0.55,1.03
		c1.04,0.47,2.03,1.04,3.04,1.57C513.23,75.53,513.21,75.59,513.19,75.65z"/>
</g>
<g>
	<g>
		<path class="st0" d="M33.51,191.83c-1.3,4.38-4.53,7.69-10.37,7.69c-7.93,0-12.1-6.31-12.1-14.08c0-7.45,4.1-14.23,12.14-14.23
			c5.95,0,9.46,3.31,10.37,7.93h-2.13c-1.26-3.59-3.59-5.95-8.36-5.95c-6.86,0-9.74,6.27-9.74,12.22c0,5.91,2.84,12.14,9.9,12.14
			c4.49,0,6.78-2.33,8.16-5.72H33.51z"/>
		<path class="st0" d="M62.26,185.21c0,7.53-4.02,14.39-12.54,14.39c-7.77,0-12.3-6.27-12.3-14.19c0-7.81,4.38-14.19,12.58-14.19
			C57.57,171.21,62.26,177.17,62.26,185.21z M39.71,185.29c0,6.35,3.51,12.34,10.13,12.34c7.14,0,10.13-5.84,10.13-12.38
			c0-6.43-3.39-12.07-10.05-12.07C42.82,173.18,39.71,179.06,39.71,185.29z"/>
		<path class="st0" d="M70.5,186.31v12.89h-2.17v-27.6h9.9c5.44,0,8.32,2.92,8.32,7.25c0,3.51-2.09,5.8-5.17,6.47
			c2.84,0.67,4.73,2.52,4.73,7.22v1.06c0,1.93-0.16,4.53,0.35,5.6H84.3c-0.51-1.18-0.39-3.39-0.39-5.76v-0.71
			c0-4.53-1.34-6.43-6.62-6.43H70.5z M70.5,184.34h6.66c4.85,0,7.1-1.81,7.1-5.44c0-3.39-2.21-5.32-6.51-5.32H70.5V184.34z"/>
		<path class="st0" d="M98.74,173.58h-9.27v-1.97h20.74v1.97h-9.31v25.63h-2.17V173.58z"/>
		<path class="st0" d="M130.52,185.64h-14.08v11.59h15.42l-0.32,1.97h-17.23v-27.6h16.91v1.97h-14.79v10.09h14.08V185.64z"/>
		<path class="st0" d="M147.55,199.21v-27.6h3.15c4.3,6.62,14.39,22.04,16.13,25.04h0.04c-0.24-3.98-0.2-8.04-0.2-12.54v-12.5h2.17
			v27.6h-2.92c-4.1-6.39-14.35-22.44-16.32-25.47h-0.04c0.2,3.63,0.16,7.65,0.16,12.66v12.81H147.55z"/>
		<path class="st0" d="M179.42,189.66l-3.51,9.54h-2.17l10.13-27.6h2.52l10.57,27.6h-2.33l-3.59-9.54H179.42z M190.34,187.69
			c-3.08-8.2-4.65-12.14-5.2-14h-0.04c-0.67,2.09-2.44,6.98-4.93,14H190.34z"/>
		<path class="st0" d="M222.67,191.83c-1.3,4.38-4.53,7.69-10.37,7.69c-7.93,0-12.1-6.31-12.1-14.08c0-7.45,4.1-14.23,12.14-14.23
			c5.95,0,9.46,3.31,10.37,7.93h-2.13c-1.26-3.59-3.59-5.95-8.36-5.95c-6.86,0-9.74,6.27-9.74,12.22c0,5.91,2.84,12.14,9.9,12.14
			c4.49,0,6.78-2.33,8.16-5.72H222.67z"/>
		<path class="st0" d="M230.36,171.61v27.6h-2.13v-27.6H230.36z"/>
		<path class="st0" d="M261.28,185.21c0,7.53-4.02,14.39-12.54,14.39c-7.77,0-12.3-6.27-12.3-14.19c0-7.81,4.38-14.19,12.58-14.19
			C256.58,171.21,261.28,177.17,261.28,185.21z M238.72,185.29c0,6.35,3.51,12.34,10.13,12.34c7.14,0,10.13-5.84,10.13-12.38
			c0-6.43-3.39-12.07-10.05-12.07C241.84,173.18,238.72,179.06,238.72,185.29z"/>
		<path class="st0" d="M267.35,199.21v-27.6h3.15c4.3,6.62,14.39,22.04,16.13,25.04h0.04c-0.24-3.98-0.2-8.04-0.2-12.54v-12.5h2.17
			v27.6h-2.92c-4.1-6.39-14.35-22.44-16.32-25.47h-0.04c0.2,3.63,0.16,7.65,0.16,12.66v12.81H267.35z"/>
		<path class="st0" d="M299.21,189.66l-3.51,9.54h-2.17l10.13-27.6h2.52l10.57,27.6h-2.33l-3.59-9.54H299.21z M310.13,187.69
			c-3.08-8.2-4.65-12.14-5.21-14h-0.04c-0.67,2.09-2.45,6.98-4.93,14H310.13z"/>
		<path class="st0" d="M321.65,171.61h2.13v25.63h14.83l-0.39,1.97h-16.56V171.61z"/>
		<path class="st0" d="M353.35,171.61h9.15c7.57,0,12.81,5.28,12.81,13.56c0,8.24-5.13,14.04-12.85,14.04h-9.11V171.61z
			 M355.48,197.23h6.66c7.29,0,10.88-5.13,10.88-11.95c0-6.07-3.23-11.71-10.88-11.71h-6.66V197.23z"/>
		<path class="st0" d="M397.59,185.64h-14.08v11.59h15.42l-0.32,1.97h-17.23v-27.6h16.92v1.97h-14.79v10.09h14.08V185.64z"/>
		<path class="st0" d="M414.63,171.61h2.13v12.03h16.56v-12.03h2.13v27.6h-2.13v-13.6h-16.56v13.6h-2.13V171.61z"/>
		<path class="st0" d="M466.36,185.21c0,7.53-4.02,14.39-12.54,14.39c-7.77,0-12.3-6.27-12.3-14.19c0-7.81,4.38-14.19,12.58-14.19
			C461.67,171.21,466.36,177.17,466.36,185.21z M443.81,185.29c0,6.35,3.51,12.34,10.13,12.34c7.14,0,10.13-5.84,10.13-12.38
			c0-6.43-3.39-12.07-10.05-12.07C446.92,173.18,443.81,179.06,443.81,185.29z"/>
		<path class="st0" d="M472.44,199.21v-27.6h3.15c4.3,6.62,14.39,22.04,16.13,25.04h0.04c-0.24-3.98-0.2-8.04-0.2-12.54v-12.5h2.17
			v27.6h-2.92c-4.1-6.39-14.35-22.44-16.32-25.47h-0.04c0.2,3.63,0.16,7.65,0.16,12.66v12.81H472.44z"/>
		<path class="st0" d="M524.64,185.21c0,7.53-4.02,14.39-12.54,14.39c-7.77,0-12.3-6.27-12.3-14.19c0-7.81,4.38-14.19,12.58-14.19
			C519.95,171.21,524.64,177.17,524.64,185.21z M502.09,185.29c0,6.35,3.51,12.34,10.13,12.34c7.14,0,10.13-5.84,10.13-12.38
			c0-6.43-3.39-12.07-10.05-12.07C505.21,173.18,502.09,179.06,502.09,185.29z"/>
		<path class="st0" d="M532.89,186.31v12.89h-2.17v-27.6h9.9c5.44,0,8.32,2.92,8.32,7.25c0,3.51-2.09,5.8-5.17,6.47
			c2.84,0.67,4.73,2.52,4.73,7.22v1.06c0,1.93-0.16,4.53,0.35,5.6h-2.17c-0.51-1.18-0.39-3.39-0.39-5.76v-0.71
			c0-4.53-1.34-6.43-6.62-6.43H532.89z M532.89,184.34h6.66c4.85,0,7.1-1.81,7.1-5.44c0-3.39-2.21-5.32-6.51-5.32h-7.25V184.34z"/>
	</g>
</g>
<g>
	<g>
		<path class="st0" d="M31.83,130.19c-5.82,0-11.38-0.04-14.35-0.17v0.13c3.99,1.19,18.64,7.22,28.03,11v2.25
			c-7.26,2.85-23.57,9.09-28.07,10.45v0.08c3.4-0.21,10.32-0.3,15.41-0.3h12.65v2.29H15.78v-3.44c10.19-4.08,23.53-9.22,26.88-10.32
			v-0.08c-2.17-0.68-16.99-6.62-26.88-10.79v-3.4h29.73v2.29H31.83z"/>
		<path class="st0" d="M6.69,102.58l5.82,7.13v2.63l-5.82-6.54V102.58z M30.9,102.12v15.16h12.48v-16.6l2.12,0.34v18.56H15.78
			v-18.22h2.12v15.92h10.87v-15.16H30.9z"/>
		<path class="st0" d="M45.51,78.25l-13.38,8.96v0.04l13.38,8.88v2.68L30.39,88.66l-14.61,9.72V95.7l12.7-8.49v-0.04l-12.7-8.66
			v-2.68l14.44,10.02l15.29-10.32V78.25z"/>
		<path class="st0" d="M15.78,68.91h29.73v2.29H15.78V68.91z"/>
		<path class="st0" d="M37.57,38.16c4.71,1.4,8.28,4.88,8.28,11.17c0,8.54-6.79,13.04-15.16,13.04c-8.03,0-15.33-4.42-15.33-13.08
			c0-6.41,3.57-10.19,8.54-11.17v2.29c-3.86,1.36-6.41,3.86-6.41,9c0,7.39,6.75,10.49,13.16,10.49c6.37,0,13.08-3.06,13.08-10.66
			c0-4.84-2.51-7.3-6.16-8.79V38.16z"/>
		<path class="st0" d="M30.43,7.21c8.11,0,15.5,4.33,15.5,13.5c0,8.37-6.75,13.25-15.29,13.25c-8.41,0-15.29-4.71-15.29-13.55
			C15.36,12.26,21.77,7.21,30.43,7.21z M30.52,31.5c6.84,0,13.29-3.78,13.29-10.91c0-7.69-6.28-10.91-13.33-10.91
			c-6.92,0-12.99,3.65-12.99,10.83C17.48,28.14,23.81,31.5,30.52,31.5z"/>
	</g>
</g>
<rect x="17.28" y="161.21" class="st0" width="529.73" height="5.58"/>
</svg>
